<svg width="64" height="64" viewBox="0 0 64 64" fill="none" xmlns="http://www.w3.org/2000/svg">
<path d="M32 51.9999C39.2406 51.9999 45.1103 46.3071 45.1103 39.2846C45.1103 32.2622 39.2406 26.5693 32 26.5693C24.7593 26.5693 18.8896 32.2622 18.8896 39.2846C18.8896 46.3071 24.7593 51.9999 32 51.9999Z" fill="url(#paint0_linear_217_41)"/>
<path fill-rule="evenodd" clip-rule="evenodd" d="M4.3535 24.5752L11.3927 32.6614C11.6529 32.9582 12.0248 33.1414 12.4254 33.1701C12.8259 33.1988 13.2216 33.0707 13.524 32.8143C24.9233 22.9012 39.0392 22.9012 50.4685 32.8143C50.7709 33.0707 51.1666 33.1988 51.5671 33.1701C51.9677 33.1414 52.3396 32.9582 52.5998 32.6614L59.6465 24.5752C60.1784 23.9633 60.1013 23.0498 59.4739 22.53C42.9265 8.49001 21.066 8.49001 4.5261 22.53C3.89866 23.0498 3.82156 23.9633 4.3535 24.5752Z" fill="#2684FF"/>
<defs>
<linearGradient id="paint0_linear_217_41" x1="32" y1="47.6256" x2="32" y2="25.0991" gradientUnits="userSpaceOnUse">
<stop stop-color="#2684FF"/>
<stop offset="0.82" stop-color="#0052CC"/>
</linearGradient>
</defs>
</svg>
