<svg width="64" height="64" viewBox="0 0 64 64" fill="none" xmlns="http://www.w3.org/2000/svg">
<path d="M32 32C39.732 32 46 25.732 46 18C46 10.268 39.732 4 32 4C24.268 4 18 10.268 18 18C18 25.732 24.268 32 32 32Z" fill="url(#paint0_linear_217_679)"/>
<path fill-rule="evenodd" clip-rule="evenodd" d="M30.8854 59.6591C22.348 53.8376 15.2477 45.904 10.185 36.5292C9.98934 36.1535 9.94678 35.7082 10.0673 35.2979C10.1879 34.8876 10.461 34.5483 10.8225 34.3596L20.7221 29.1666C21.4146 28.8056 22.2503 29.0794 22.6346 29.7932C27.6396 38.76 35.0404 45.9207 43.8845 50.3539C40.6228 53.8669 37.0107 56.9872 33.113 59.6591C32.4314 60.114 31.567 60.114 30.8854 59.6591Z" fill="url(#paint1_linear_217_679)"/>
<path fill-rule="evenodd" clip-rule="evenodd" d="M33.1129 59.6591C41.6514 53.839 48.752 45.9051 53.8133 36.5292C54.0095 36.1544 54.0531 35.71 53.934 35.2998C53.8148 34.8896 53.5434 34.5497 53.1831 34.3596L43.2762 29.1666C42.5837 28.8056 41.748 29.0794 41.3637 29.7932C36.3598 38.7609 28.9587 45.922 20.1138 50.3539C23.3735 53.8692 26.9859 56.9898 30.8853 59.6591C31.5669 60.114 32.4313 60.114 33.1129 59.6591Z" fill="#2684FF"/>
<defs>
<linearGradient id="paint0_linear_217_679" x1="32" y1="8.65359" x2="32" y2="37.3991" gradientUnits="userSpaceOnUse">
<stop stop-color="#2684FF"/>
<stop offset="0.82" stop-color="#0052CC"/>
</linearGradient>
<linearGradient id="paint1_linear_217_679" x1="23.9535" y1="36.5292" x2="31.6554" y2="57.1255" gradientUnits="userSpaceOnUse">
<stop stop-color="#2684FF"/>
<stop offset="0.62" stop-color="#0052CC"/>
</linearGradient>
</defs>
</svg>
