<svg width="119" height="64" viewBox="0 0 119 64" fill="none" xmlns="http://www.w3.org/2000/svg">
<path d="M87.5458 20.0116L96.6164 4.37681C96.8597 3.9467 96.9231 3.4383 96.7927 2.96195C96.6625 2.4856 96.3491 2.07943 95.9205 1.83159C95.4919 1.58361 94.9824 1.51384 94.5025 1.63729C94.0225 1.76074 93.6108 2.06753 93.3562 2.49128L84.1804 18.3092C76.8558 15.0293 68.9164 13.3333 60.8856 13.3333C52.8549 13.3333 44.9154 15.0293 37.5909 18.3092L28.4149 2.49128C28.1604 2.06753 27.7486 1.76074 27.2687 1.63729C26.7887 1.51384 26.2792 1.58361 25.8506 1.83159C25.422 2.07943 25.1086 2.4856 24.9784 2.96195C24.8482 3.4383 24.9114 3.9467 25.1547 4.37681L34.2255 20.0116C18.5817 28.4443 7.95967 44.1314 6.40845 62.6468H115.258C113.706 44.1314 103.058 28.4443 87.5458 20.0116ZM35.803 47.1954C34.9086 47.1954 34.0343 46.9313 33.2905 46.4363C32.5468 45.9413 31.9673 45.2378 31.6249 44.4148C31.2827 43.5917 31.1931 42.6859 31.3676 41.8122C31.5421 40.9383 31.9728 40.1357 32.6052 39.5058C33.2377 38.8758 34.0435 38.4468 34.9207 38.2731C35.798 38.0993 36.7073 38.1884 37.5335 38.5294C38.3598 38.8703 39.0662 39.4476 39.5631 40.1885C40.06 40.9291 40.3252 41.8 40.3252 42.6909C40.3252 43.8857 39.8488 45.0313 39.0007 45.8761C38.1525 46.7208 37.0023 47.1954 35.803 47.1954ZM85.9156 47.1954C85.0212 47.1954 84.1468 46.9313 83.4032 46.4363C82.6595 45.9413 82.0798 45.2378 81.7376 44.4148C81.3953 43.5917 81.3058 42.6859 81.4803 41.8122C81.6547 40.9383 82.0855 40.1357 82.7179 39.5058C83.3503 38.8758 84.1562 38.4468 85.0334 38.2731C85.9107 38.0993 86.8198 38.1884 87.6462 38.5294C88.4725 38.8703 89.1788 39.4476 89.6757 40.1885C90.1726 40.9291 90.4378 41.8 90.4378 42.6909C90.4378 43.8857 89.9614 45.0313 89.1133 45.8761C88.2652 46.7208 87.115 47.1954 85.9156 47.1954Z" fill="#3DDC84"/>
</svg>
