<svg width="65" height="64" viewBox="0 0 65 64" fill="none" xmlns="http://www.w3.org/2000/svg">
<path d="M49.4636 34.3275C49.3863 26.3147 56.0796 22.4648 56.3806 22.2814C52.6133 16.8352 46.7616 16.0866 44.6772 16.0026C39.6978 15.4985 34.9578 18.9052 32.4256 18.9052C29.8935 18.9052 25.9949 16.0713 21.8647 16.1553C16.4299 16.2317 11.4197 19.2795 8.61736 24.0918C2.98177 33.7622 7.18139 48.1227 12.6858 55.9829C15.38 59.825 18.576 64.1561 22.7912 63.9957C26.8518 63.8353 28.3804 61.3986 33.2749 61.3986C38.1693 61.3986 39.5511 63.9957 43.8357 63.9193C48.1975 63.8353 50.9613 59.9931 53.6324 56.1356C56.7049 51.667 57.9786 47.3512 58.0559 47.122C57.9555 47.084 49.5562 43.8987 49.4636 34.3275Z" fill="black"/>
<path d="M41.4106 10.7927C43.6494 8.11149 45.1547 4.39152 44.7456 0.679199C41.5264 0.80905 37.6278 2.80269 35.3195 5.4839C33.2506 7.85186 31.4364 11.6405 31.9305 15.2765C35.5048 15.5515 39.1795 13.4661 41.4106 10.7927Z" fill="black"/>
</svg>
