<svg width="223" height="66" viewBox="0 0 223 66" fill="none" xmlns="http://www.w3.org/2000/svg">
<g filter="url(#filter0_d_2_20019)">
<rect x="2" y="1" width="219" height="62" rx="8" fill="white"/>
<rect x="2.5" y="1.5" width="218" height="61" rx="7.5" stroke="#D0D5DD"/>
<path d="M66.5 23.508C67.012 23.332 67.476 23.1 67.892 22.812C68.308 22.524 68.632 22.216 68.864 21.888C69.104 21.56 69.224 21.252 69.224 20.964C69.224 20.556 69.02 19.556 68.612 17.964L69.536 17.616C69.712 18.184 69.856 18.784 69.968 19.416C70.088 20.048 70.148 20.564 70.148 20.964C70.148 21.436 70.008 21.896 69.728 22.344C69.448 22.8 69.06 23.208 68.564 23.568C68.076 23.936 67.524 24.228 66.908 24.444L66.5 23.508ZM68.888 14.724L69.74 15.576L68.888 16.428L68.036 15.576L68.888 14.724ZM71.597 20.928C71.653 20.448 71.681 19.636 71.681 18.492C71.681 17.404 71.657 16.28 71.609 15.12C71.569 13.952 71.521 13.196 71.465 12.852L72.425 12.648C72.473 13.016 72.521 13.82 72.569 15.06C72.625 16.292 72.653 17.464 72.653 18.576C72.653 19.696 72.625 20.52 72.569 21.048L71.597 20.928ZM82.0618 21.12C80.6938 21.12 79.6218 20.924 78.8458 20.532C78.0778 20.14 77.6578 19.576 77.5858 18.84C77.5778 18.776 77.5738 18.684 77.5738 18.564C77.5738 18.228 77.6138 17.88 77.6938 17.52C77.7818 17.152 77.8898 16.828 78.0178 16.548L78.8338 16.956C78.6098 17.58 78.4978 18.072 78.4978 18.432C78.4978 18.544 78.5018 18.628 78.5098 18.684C78.5738 19.116 78.9018 19.452 79.4938 19.692C80.0938 19.924 80.9578 20.04 82.0858 20.04C83.0538 20.04 83.8418 19.96 84.4498 19.8C85.0658 19.632 85.5498 19.376 85.9018 19.032C86.2538 18.68 86.5258 18.216 86.7178 17.64L87.6058 17.736C87.4698 18.184 87.4018 18.56 87.4018 18.864C87.4018 19.04 87.4258 19.2 87.4738 19.344C87.5938 19.728 87.9138 19.92 88.4338 19.92L88.4938 20.46L88.4338 21C87.9458 21 87.5378 20.864 87.2098 20.592C86.8818 20.312 86.6898 19.932 86.6338 19.452C86.1778 20.036 85.5738 20.46 84.8218 20.724C84.0698 20.988 83.1498 21.12 82.0618 21.12ZM81.2698 15.696L82.1218 16.548L81.2698 17.4L80.4178 16.548L81.2698 15.696ZM83.4178 15.696L84.2698 16.548L83.4178 17.4L82.5658 16.548L83.4178 15.696ZM88.3069 19.92H88.4509C89.4589 19.92 90.2669 19.848 90.8749 19.704C91.4909 19.56 91.9269 19.328 92.1829 19.008C91.9829 19.032 91.7829 19.044 91.5829 19.044C91.0469 19.044 90.5709 18.96 90.1549 18.792C89.7389 18.624 89.4389 18.368 89.2549 18.024C89.1029 17.728 89.0269 17.396 89.0269 17.028C89.0269 16.636 89.1109 16.252 89.2789 15.876C89.4549 15.5 89.6949 15.192 89.9989 14.952C90.3029 14.712 90.6349 14.592 90.9949 14.592C91.4349 14.592 91.8229 14.76 92.1589 15.096C92.5029 15.432 92.7629 15.868 92.9389 16.404C93.1229 16.932 93.2149 17.472 93.2149 18.024C93.2149 18.128 93.2069 18.276 93.1909 18.468C93.1189 19.284 92.6829 19.912 91.8829 20.352C91.0829 20.784 89.9389 21 88.4509 21H88.3069V19.92ZM90.8869 11.964L91.7389 12.816L90.8869 13.668L90.0349 12.816L90.8869 11.964ZM89.9869 17.388C90.1069 17.588 90.3309 17.744 90.6589 17.856C90.9869 17.968 91.3589 18.024 91.7749 18.024C92.0149 18.024 92.2269 18.008 92.4109 17.976C92.3389 17.36 92.1749 16.82 91.9189 16.356C91.6709 15.884 91.3469 15.648 90.9469 15.648C90.7549 15.648 90.5749 15.712 90.4069 15.84C90.2469 15.968 90.1189 16.136 90.0229 16.344C89.9269 16.544 89.8789 16.744 89.8789 16.944C89.8789 17.104 89.9149 17.252 89.9869 17.388ZM96.9632 21C96.3952 21 95.9512 20.908 95.6312 20.724C95.3112 20.532 95.0832 20.248 94.9472 19.872C94.8192 19.496 94.7552 19 94.7552 18.384C94.7552 17.472 94.7352 16.44 94.6952 15.288C94.6632 14.128 94.6112 13.316 94.5392 12.852L95.4992 12.648C95.5632 13.056 95.6112 13.772 95.6432 14.796C95.6832 15.812 95.7032 16.736 95.7032 17.568V18.072L95.6912 18.492C95.6912 18.868 95.7232 19.156 95.7872 19.356C95.8512 19.548 95.9712 19.692 96.1472 19.788C96.3312 19.876 96.6032 19.92 96.9632 19.92H97.0232L97.0832 20.46L97.0232 21H96.9632ZM96.9087 19.92H97.3888C98.2448 19.92 98.8488 19.84 99.2008 19.68C99.5528 19.512 99.7288 19.24 99.7288 18.864C99.7208 18.616 99.6368 18.24 99.4768 17.736C99.3248 17.224 99.1928 16.856 99.0808 16.632L99.9448 16.176C100.105 16.488 100.261 16.912 100.413 17.448C100.573 17.976 100.653 18.436 100.653 18.828C100.653 19.54 100.393 20.08 99.8728 20.448C99.3528 20.816 98.5688 21 97.5208 21H96.9087V19.92ZM99.1888 23.82L98.3368 22.968L99.1888 22.116L100.041 22.968L99.1888 23.82ZM97.0408 23.82L96.1887 22.968L97.0408 22.116L97.8928 22.968L97.0408 23.82ZM100.66 23.508C101.172 23.332 101.636 23.1 102.052 22.812C102.468 22.524 102.792 22.216 103.024 21.888C103.264 21.56 103.384 21.252 103.384 20.964C103.384 20.556 103.18 19.556 102.772 17.964L103.696 17.616C103.872 18.184 104.016 18.784 104.128 19.416C104.248 20.048 104.308 20.564 104.308 20.964C104.308 21.436 104.168 21.896 103.888 22.344C103.608 22.8 103.22 23.208 102.724 23.568C102.236 23.936 101.684 24.228 101.068 24.444L100.66 23.508ZM107.833 21.036C107.201 21.036 106.661 20.952 106.213 20.784C105.765 20.608 105.409 20.408 105.145 20.184L105.613 19.392C105.645 19.408 105.761 19.476 105.961 19.596C106.169 19.708 106.429 19.804 106.741 19.884C107.061 19.964 107.397 20.004 107.749 20.004C108.181 20.004 108.533 19.944 108.805 19.824C109.085 19.696 109.265 19.556 109.345 19.404C109.385 19.308 109.405 19.208 109.405 19.104C109.405 18.728 109.197 18.264 108.781 17.712C108.373 17.152 107.749 16.564 106.909 15.948L107.449 15.012C108.337 15.684 109.029 16.38 109.525 17.1C110.029 17.812 110.281 18.48 110.281 19.104C110.281 19.392 110.229 19.652 110.125 19.884C109.965 20.252 109.677 20.536 109.261 20.736C108.845 20.936 108.369 21.036 107.833 21.036Z" fill="#344054"/>
<path d="M69.27 46.2035C67.1363 46.2035 65.459 45.8767 64.238 45.223C63.0293 44.5693 62.3695 43.6505 62.2585 42.4665C62.2462 42.3678 62.24 42.2198 62.24 42.0225C62.24 41.5045 62.3078 40.9557 62.4435 40.376C62.5792 39.784 62.7518 39.2413 62.9615 38.748L64.571 39.5435C64.201 40.6658 64.0407 41.4983 64.09 42.041C64.1887 42.5713 64.6882 43.003 65.5885 43.336C66.4888 43.6567 67.753 43.817 69.381 43.817C70.935 43.817 72.1622 43.706 73.0625 43.484C73.9628 43.2497 74.6597 42.892 75.153 42.411C75.6463 41.93 76.0472 41.2578 76.3555 40.3945L78.0945 40.598C77.8725 41.2763 77.7615 41.8437 77.7615 42.3C77.7615 42.522 77.7862 42.707 77.8355 42.855C77.9835 43.3607 78.409 43.6135 79.112 43.6135L79.2415 44.7975L79.112 46C78.409 46 77.7985 45.7965 77.2805 45.3895C76.7625 44.9825 76.448 44.4398 76.337 43.7615C75.597 44.6618 74.6597 45.297 73.525 45.667C72.3903 46.0247 70.972 46.2035 69.27 46.2035ZM67.2905 38.0265C67.9442 37.3728 68.271 37.046 68.271 37.046L69.751 38.526L69.2515 39.0255C68.5978 39.6792 68.271 40.006 68.271 40.006L66.791 38.526L67.2905 38.0265ZM70.565 38.0265C71.2187 37.3728 71.5455 37.046 71.5455 37.046L73.0255 38.526L72.526 39.0255C71.8723 39.6792 71.5455 40.006 71.5455 40.006L70.0655 38.526L70.565 38.0265ZM88.6259 46C87.9969 46 87.4111 45.8212 86.8684 45.4635C86.3257 45.0935 85.7584 44.52 85.1664 43.743C84.7964 44.4953 84.1181 45.0627 83.1314 45.445C82.1447 45.815 80.9361 46 79.5054 46H78.9319V43.6135H79.5054C80.6277 43.6135 81.5342 43.521 82.2249 43.336C82.9279 43.151 83.3904 42.892 83.6124 42.559C83.6247 41.9547 83.3041 41.2147 82.6504 40.339C81.9967 39.451 81.0286 38.4828 79.7459 37.4345L79.9679 35.3255L86.7944 32.4025L87.4604 34.3265L81.9659 36.6945C82.4346 37.1015 82.9279 37.601 83.4459 38.193C83.9639 38.785 84.4017 39.4017 84.7594 40.043C85.3761 41.005 85.8879 41.7388 86.2949 42.2445C86.7019 42.7378 87.0842 43.0893 87.4419 43.299C87.7996 43.5087 88.1942 43.6135 88.6259 43.6135H88.9034L89.0329 44.7975L88.9034 46H88.6259ZM88.7054 43.6135H89.5564C90.8144 43.6135 91.7024 43.5025 92.2204 43.2805C92.7384 43.0462 92.9974 42.6885 92.9974 42.2075C92.9851 41.8992 92.8494 41.3688 92.5904 40.6165C92.3437 39.8518 92.1464 39.3092 91.9984 38.9885L93.7374 38.045C93.9841 38.6 94.2307 39.2907 94.4774 40.117C94.7241 40.9433 94.8474 41.671 94.8474 42.3C94.8351 43.5087 94.4157 44.4275 93.5894 45.0565C92.7631 45.6855 91.5359 46 89.9079 46H88.7239L88.7054 43.6135ZM92.2019 50.5695L90.7219 49.0895C90.7219 49.0895 91.0487 48.7627 91.7024 48.109L92.2019 47.6095L92.7014 48.109C93.3551 48.7627 93.6819 49.0895 93.6819 49.0895L92.2019 50.5695ZM88.9274 50.5695L87.4474 49.0895C87.4474 49.0895 87.7742 48.7627 88.4279 48.109L88.9274 47.6095L89.4269 48.109C90.0806 48.7627 90.4074 49.0895 90.4074 49.0895L88.9274 50.5695ZM100.734 46C99.3895 46 98.4399 45.6362 97.8849 44.9085C97.3299 44.1808 97.0524 43.04 97.0524 41.486C97.0524 40.0677 97.0092 38.5383 96.9229 36.898C96.8489 35.2453 96.744 33.9565 96.6084 33.0315L98.6249 32.569C98.7482 33.4447 98.8469 34.7705 98.9209 36.5465C98.9949 38.3102 99.0257 39.8333 99.0134 41.116C99.001 41.7943 99.0319 42.3062 99.1059 42.6515C99.1799 42.9845 99.3402 43.2312 99.5869 43.3915C99.8335 43.5395 100.216 43.6135 100.734 43.6135H100.826L100.956 44.7975L100.826 46H100.734ZM100.685 43.6135H101.036C102.011 43.6135 102.812 43.0338 103.441 41.8745C104.009 40.7645 104.582 39.9135 105.162 39.3215C105.741 38.7172 106.383 38.415 107.086 38.415C107.727 38.415 108.288 38.6185 108.769 39.0255C109.25 39.4325 109.62 39.9567 109.879 40.598C110.138 41.2393 110.268 41.9115 110.268 42.6145C110.268 43.3175 110.132 43.9588 109.861 44.5385C109.602 45.1182 109.219 45.5622 108.714 45.8705C108.442 46.0185 108.134 46.0925 107.789 46.0925C106.851 46.0925 105.593 45.593 104.015 44.594C103.645 45.0627 103.201 45.4142 102.683 45.6485C102.165 45.8828 101.597 46 100.981 46H100.648L100.685 43.6135ZM105.051 42.67C105.667 43.0523 106.222 43.3545 106.716 43.5765C107.209 43.7862 107.585 43.891 107.844 43.891C107.955 43.891 108.035 43.8725 108.085 43.8355C108.405 43.6382 108.566 43.2558 108.566 42.6885C108.566 42.1582 108.424 41.671 108.14 41.227C107.857 40.783 107.493 40.561 107.049 40.561C106.444 40.561 105.778 41.264 105.051 42.67Z" fill="#344054"/>
<g clip-path="url(#clip0_2_20019)">
<mask id="mask0_2_20019" style="mask-type:luminance" maskUnits="userSpaceOnUse" x="123" y="13" width="38" height="38">
<path d="M161 13H123V51H161V13Z" fill="white"/>
</mask>
<g mask="url(#mask0_2_20019)">
<path d="M141.999 50.1695C152.033 50.1695 160.168 42.0346 160.168 32C160.168 21.9653 152.033 13.8306 141.999 13.8306C131.964 13.8306 123.829 21.9653 123.829 32C123.829 42.0346 131.964 50.1695 141.999 50.1695Z" fill="#0091EA"/>
<path d="M153.142 29.8503C152.99 26.4086 150.162 23.678 146.688 23.678C144.761 23.678 143.024 24.5303 141.84 25.8657C140.657 24.5303 138.92 23.678 136.992 23.678C133.589 23.678 130.798 26.3 130.549 29.6603C130.538 29.7308 130.538 29.8231 130.538 29.91V37.2006C130.538 38.0963 131.26 38.8183 132.156 38.8183H132.194C133.089 38.8183 133.811 38.0963 133.811 37.2006V30.1434H133.822C133.822 28.3683 135.266 26.9297 137.036 26.9297C138.811 26.9297 140.25 28.3737 140.25 30.1434H140.26V36.0986C140.26 36.9943 140.982 37.7163 141.878 37.7163H141.916C142.812 37.7163 143.534 36.9943 143.534 36.0986V30.1271C143.545 28.352 144.978 26.9351 146.748 26.9351C148.517 26.9351 149.978 28.3845 149.978 30.1543H149.988V37.2223C149.988 38.1071 150.71 38.8183 151.584 38.8183H151.622C152.507 38.8183 153.218 38.0963 153.218 37.2223V30.0131C153.142 29.9317 153.142 29.8937 153.142 29.8503Z" fill="white"/>
<path d="M147.036 39.448C146.966 39.3286 146.727 39.5675 146.727 39.5675C145.831 40.5392 143.974 41.1635 142.047 41.1635C140.12 41.1635 138.274 40.5392 137.368 39.5675C137.368 39.5675 137.129 39.3178 137.058 39.448C136.966 39.5892 137.107 39.8172 137.107 39.8172C138.253 41.4729 140.001 42.2166 142.047 42.2166C144.094 42.2166 145.842 41.4729 146.987 39.8172C146.998 39.8118 147.128 39.5892 147.036 39.448Z" fill="white"/>
</g>
</g>
</g>
<defs>
<filter id="filter0_d_2_20019" x="0" y="0" width="223" height="66" filterUnits="userSpaceOnUse" color-interpolation-filters="sRGB">
<feFlood flood-opacity="0" result="BackgroundImageFix"/>
<feColorMatrix in="SourceAlpha" type="matrix" values="0 0 0 0 0 0 0 0 0 0 0 0 0 0 0 0 0 0 127 0" result="hardAlpha"/>
<feOffset dy="1"/>
<feGaussianBlur stdDeviation="1"/>
<feColorMatrix type="matrix" values="0 0 0 0 0.0627451 0 0 0 0 0.0941176 0 0 0 0 0.156863 0 0 0 0.05 0"/>
<feBlend mode="normal" in2="BackgroundImageFix" result="effect1_dropShadow_2_20019"/>
<feBlend mode="normal" in="SourceGraphic" in2="effect1_dropShadow_2_20019" result="shape"/>
</filter>
<clipPath id="clip0_2_20019">
<rect width="38" height="38" fill="white" transform="translate(123.5 13)"/>
</clipPath>
</defs>
</svg>
