<svg width="96" height="96" viewBox="0 0 96 96" fill="none" xmlns="http://www.w3.org/2000/svg">
<path d="M18.4579 78.3305L21.604 77.1864C21.604 77.4724 21.6994 77.6631 21.6994 77.9491L19.4113 78.8071C20.0787 79.5698 20.8413 80.3325 21.5087 81.0952C21.7947 81.3812 21.9854 81.6672 22.2714 81.8579C22.748 82.0485 23.3201 81.9532 23.8921 81.9532C24.0827 81.9532 24.4641 81.9532 24.5594 81.6672C24.6547 81.1905 24.5594 80.7138 24.5594 80.2372H25.3221V81.5719C25.3221 81.7625 25.5128 81.8579 25.7034 81.8579C26.0848 81.9532 26.5615 81.9532 26.9428 81.8579C27.1335 81.8579 27.3241 81.7625 27.3241 81.5719V80.2372H28.1822C28.1822 80.9998 28.3728 81.8579 27.8008 82.4299C27.5148 82.7159 27.0381 82.7159 26.6568 82.7159C26.0848 82.7159 25.5128 82.8112 25.0361 82.4299C24.7501 82.6205 24.3687 82.7159 24.0827 82.7159C23.2247 82.7159 22.176 82.9065 21.5087 82.1439C21.318 82.4299 21.1273 82.7159 20.8413 82.7159H17.7906C17.8859 83.2879 17.6953 83.9552 17.2186 84.3366C16.5512 84.9086 15.6932 84.7179 14.9305 84.7179C14.0725 84.8133 13.3098 84.0506 13.1192 83.2879C12.9285 82.5252 13.0238 81.8579 13.0238 81.0952H13.7865V83.0972C13.8819 83.6692 14.5492 84.0506 15.1212 84.0506C15.6932 84.0506 16.4559 84.2412 16.8372 83.7646C17.0279 83.5739 17.1233 83.0972 16.8372 83.0019C16.3606 82.9065 15.8839 82.9065 15.4072 82.9065C15.4072 82.6205 15.4072 82.4299 15.3119 82.1439H20.46C20.746 82.2392 21.032 81.8579 20.746 81.6672C19.9833 80.7138 19.2206 80.0465 18.6486 79.1885C18.4579 78.9025 18.4579 78.6165 18.4579 78.3305ZM39.5271 78.3305C40.5758 77.9491 41.6244 77.5678 42.5778 77.2818C42.5778 77.5678 42.6731 77.7584 42.6731 78.0444L40.3851 78.9025L42.9591 81.7625C43.2451 82.1439 43.8172 82.0485 44.1985 82.0485C44.4845 82.0485 44.5798 81.6672 44.5798 81.3812V77.8538H45.3425V81.6672C45.3425 82.1439 45.0565 82.7159 44.4845 82.8112C43.7218 82.9065 42.8638 82.9065 42.2918 82.2392C42.1011 82.5252 41.9104 82.8112 41.6244 82.8112H39.6224C39.1457 82.8112 38.5737 82.9065 38.1924 82.5252C37.9064 82.7159 37.525 82.8112 37.1437 82.8112C36.4763 82.8112 35.7137 83.0019 35.237 82.5252C35.237 83.2879 34.951 84.1459 34.1883 84.5272C33.6163 84.9086 32.8536 84.7179 32.1862 84.8133C32.1862 84.5273 32.0909 84.3366 32.0909 84.0506C32.6629 84.0506 33.4256 84.1459 33.9023 83.7646C34.1883 83.5739 34.379 83.1926 34.379 82.8112V80.3325H35.1416V81.6672C35.3323 82.0485 35.809 82.0485 36.1903 82.0485C36.667 82.0485 37.1437 82.1439 37.6204 81.8579C37.7157 81.3812 37.6204 80.8092 37.7157 80.3325H38.4784V81.6672C38.4784 81.8579 38.5737 81.9532 38.7644 81.9532C39.4317 82.0485 40.0991 81.9532 40.7664 81.9532C41.0524 81.9532 41.3384 82.0485 41.5291 81.7625C41.5291 81.5718 41.4338 81.3812 41.3384 81.2858C40.7664 80.6185 40.0991 79.9512 39.4317 79.2838C39.5271 78.9025 39.5271 78.6165 39.5271 78.3305ZM46.4865 82.7159V77.6631H47.2492V82.7159H46.4865ZM54.1134 77.8538H54.8761V81.1905C54.8761 81.4765 54.8761 81.6672 55.0667 81.8579C55.4481 81.9532 55.8294 81.9532 56.2108 81.8579C56.3061 81.2858 56.2108 80.7138 56.4968 80.2372C56.8781 79.3791 58.3081 79.3791 58.6895 80.1418C59.0708 80.6185 58.8801 81.2858 59.0708 81.7625C59.5475 81.9532 60.0242 81.8579 60.5008 81.8579C60.7869 81.8579 61.2635 81.9532 61.3589 81.5719C61.4542 81.0952 61.3589 80.6185 61.3589 80.2372H62.1215C62.1215 80.7138 62.0262 81.2858 62.2169 81.7625C62.5982 81.9532 63.1702 81.8579 63.5516 81.8579C63.3609 81.2858 63.1702 80.7138 63.5516 80.1418C63.8376 79.5698 64.6003 79.3791 65.1723 79.4745C65.5536 79.5698 65.8396 79.7605 66.221 80.0465C66.1256 80.2372 65.935 80.4278 65.8396 80.7138C65.4583 80.4278 64.9816 80.1418 64.5049 80.3325C64.0283 80.7138 64.1236 81.5719 64.6003 81.8579C65.1723 81.9532 65.7443 81.8579 66.3163 81.8579C66.4116 82.1439 66.4116 82.3345 66.507 82.6205H62.5982C62.3122 82.6205 62.0262 82.5252 61.7402 82.3345C61.1682 82.8112 60.4055 82.5252 59.6428 82.6205C59.2615 82.6205 58.8801 82.5252 58.5941 82.2392C58.4035 82.4299 58.1175 82.7159 57.7361 82.7159C57.2594 82.8112 56.8781 82.5252 56.4968 82.2392C56.0201 82.7159 55.3527 82.6205 54.7807 82.5252C54.304 82.4299 54.018 82.0485 54.018 81.5719C54.1134 80.4278 54.1134 79.0931 54.1134 77.8538ZM57.3548 80.4278C56.7828 80.8092 56.8781 82.1439 57.6408 82.0485C58.3081 82.0485 58.4035 81.2858 58.2128 80.8092C58.2128 80.4278 57.6408 80.3325 57.3548 80.4278ZM67.651 82.7159V77.6631H68.4137V82.7159H67.651ZM75.2778 77.8538H76.0405V81.2858C76.0405 81.4765 76.0405 81.8579 76.3265 81.9532C76.7079 82.0485 77.0892 82.0485 77.3752 81.8579C77.4706 81.2858 77.3752 80.7138 77.7566 80.2372C78.2332 79.4745 79.4726 79.4745 79.9493 80.2372C80.2353 80.6185 80.2353 81.1905 80.2353 81.6672C80.2353 81.8579 80.3306 81.9532 80.5213 81.9532C80.9026 82.0485 81.284 82.0485 81.6653 81.9532C81.856 81.9532 82.142 81.9532 82.2373 81.7625C82.3327 81.2858 82.2373 80.8092 82.2373 80.3325H83C82.9047 80.9998 83.1907 81.8579 82.714 82.4299C82.2373 83.0019 81.3793 82.8112 80.7119 82.8112C80.3306 82.8112 80.1399 82.6205 79.8539 82.4299C79.6633 82.6205 79.3773 82.9065 78.9959 82.9065C78.5192 83.0019 78.0426 82.7159 77.7566 82.4299C77.2799 82.9065 76.4219 82.9065 75.8498 82.6205C75.4685 82.5252 75.1825 82.1439 75.1825 81.6672C75.2778 80.4278 75.2778 79.0931 75.2778 77.8538ZM78.5192 80.4278C77.8519 80.7138 78.0426 82.1439 78.9006 82.0485C79.5679 82.0485 79.6633 81.2858 79.4726 80.8092C79.3773 80.4278 78.9006 80.3325 78.5192 80.4278ZM27.1335 78.6165C27.6101 78.3305 28.0868 79.0931 27.7055 79.4745C27.4195 79.8558 26.7521 79.5698 26.7521 79.0931C26.7521 78.8071 26.9428 78.6165 27.1335 78.6165Z" fill="#005AC2"/>
<path d="M36.667 78.6165C36.953 78.4258 37.4297 78.7118 37.4297 79.0932C37.4297 79.4745 36.953 79.7605 36.667 79.5699C36.2856 79.3792 36.2856 78.7118 36.667 78.6165ZM37.9063 78.5212C38.1923 78.4258 38.669 78.6165 38.5737 78.9978C38.5737 79.3792 38.097 79.6652 37.811 79.4745C37.4297 79.2839 37.525 78.7118 37.9063 78.5212ZM60.3101 78.5212C60.6915 78.3305 61.1682 78.9025 60.9775 79.2839C60.8822 79.6652 60.3101 79.6652 60.1195 79.3792C59.8335 79.0932 60.0241 78.6165 60.3101 78.5212ZM61.4542 78.6165C61.8355 78.4258 62.4075 78.9025 62.1215 79.2839C62.0262 79.6652 61.4542 79.6652 61.1682 79.3792C61.0728 79.0932 61.1682 78.7118 61.4542 78.6165ZM82.0466 78.6165C82.4279 78.4258 82.9046 78.9025 82.714 79.2839C82.6186 79.5699 82.2373 79.7605 81.9513 79.5699C81.5699 79.2839 81.6653 78.7118 82.0466 78.6165ZM50.5859 79.4745L51.1579 78.9025C51.73 79.4745 52.302 80.1419 52.874 80.7139C53.2553 81.0952 53.3507 81.6672 53.0647 82.1439C52.874 82.4299 52.4926 82.6206 52.1113 82.6206H49.6326C49.6326 82.3346 49.5372 82.1439 49.5372 81.8579H52.2066C52.4926 81.8579 52.588 81.4766 52.3973 81.3812C51.8253 80.8092 51.1579 80.1419 50.5859 79.4745ZM71.7504 79.4745L72.3224 78.9025C72.8944 79.4745 73.4664 80.0465 73.9431 80.6185C74.2291 80.9045 74.4198 81.2859 74.4198 81.6672C74.4198 82.2393 73.8478 82.6206 73.3711 82.6206H70.8924C70.8924 82.3346 70.797 82.1439 70.797 81.8579H73.1804C73.3711 81.8579 73.6571 81.8579 73.7524 81.6672C73.8478 81.3812 73.5618 81.2859 73.4664 81.0952C72.7991 80.6185 72.2271 80.0465 71.7504 79.4745ZM29.1355 80.4279C29.4215 79.2839 31.3282 79.3792 31.7095 80.4279C31.9002 81.0952 31.8049 81.8579 31.9002 82.5253C31.9955 83.1926 31.6142 83.86 31.1375 84.3366C30.5655 84.9086 29.7075 84.718 28.9448 84.718C28.9448 84.432 28.8495 84.2413 28.8495 83.9553C29.4215 83.9553 30.1842 84.146 30.7562 83.6693C31.0422 83.4786 31.1375 83.0973 31.2329 82.8113C30.6608 82.8113 29.9935 82.7159 29.5168 82.3346C28.8495 81.7626 28.9448 80.9999 29.1355 80.4279ZM29.9935 80.5232C29.8028 80.8092 29.8028 81.2859 29.8982 81.5719C30.0888 81.9532 30.6608 81.8579 31.0422 81.9532C31.0422 81.5719 31.0422 81.1906 30.9468 80.8092C30.8515 80.3325 30.2795 80.2372 29.9935 80.5232ZM23.32 83.5739C23.7014 83.2879 24.178 83.6693 24.0827 84.0506C24.0827 84.432 23.4154 84.718 23.2247 84.3366C23.034 84.146 23.034 83.7646 23.32 83.5739ZM24.464 83.5739C24.75 83.2879 25.2267 83.574 25.3221 83.86C25.4174 84.2413 25.0361 84.5273 24.6547 84.432C24.2734 84.432 24.178 83.8599 24.464 83.5739Z" fill="#005AC2"/>
<path d="M50.3199 12.193C52.4199 11.793 54.6199 11.993 56.4199 12.993C58.1994 14.0727 59.5978 15.6808 60.4199 17.5931C61.1199 18.8931 61.3199 20.393 61.5199 21.893C61.8199 25.893 60.8199 30.0931 58.8199 33.5931C56.8199 36.993 53.9199 39.6931 50.8199 41.993C48.6199 43.5931 46.2199 44.993 43.9199 46.3931C41.2199 48.0931 38.1199 49.1931 35.3199 50.793C35.1199 50.893 34.9199 51.093 34.8199 51.293C34.8199 51.893 34.9199 52.3931 35.1199 52.993C36.1199 56.293 38.2199 59.293 41.1199 61.093C42.9199 62.293 45.1199 62.793 47.2199 62.6931C48.1199 62.5931 49.1199 62.3931 49.9199 61.993C51.2199 61.3931 52.3199 60.3931 53.4199 59.3931C57.0199 55.6931 59.3199 50.8931 62.6199 46.8931C64.4199 44.6931 66.5199 42.893 68.9199 41.493C70.6199 40.493 72.5199 39.6931 74.3199 38.993C73.0199 40.6931 71.4199 42.193 69.6199 43.293C68.4199 43.693 67.2199 44.1931 66.2199 44.8931C65.5199 45.2931 64.9199 45.8931 64.5199 46.6931C64.7199 46.793 64.8199 46.8931 65.0199 46.8931C66.0199 46.8931 67.0199 46.6931 68.0199 46.793C68.4199 46.793 68.8199 47.193 68.8199 47.593C68.9199 48.693 68.8199 49.793 68.2199 50.793C67.6199 51.893 66.7199 52.793 65.8199 53.6931C64.1199 55.1931 61.7199 55.493 60.1199 57.093C59.9199 57.293 59.8199 57.493 59.6199 57.6931C58.2199 60.1931 56.3199 62.393 54.0199 64.093C50.1199 67.093 44.4199 67.793 39.9199 65.493C36.4199 63.793 33.9199 60.3931 32.2199 56.993C31.6199 55.793 31.1199 54.593 30.8199 53.293C30.3199 53.293 29.8199 53.493 29.3199 53.6931C25.7199 54.993 22.4199 56.793 19.1199 58.593C17.1199 59.693 15.0199 60.7931 13.1199 61.8931L10.1199 63.6931C9.91986 63.793 9.71986 63.993 9.41986 64.093C9.21986 64.093 8.91986 63.893 9.01986 63.593C9.41986 62.293 10.1199 61.1931 10.9199 60.1931C12.2199 58.493 13.9199 57.0931 15.6199 55.8931C17.4199 54.5931 19.3199 53.3931 21.3199 52.3931C24.1199 50.993 26.9199 49.893 29.8199 48.593C29.8199 45.793 30.0199 42.993 30.5199 40.293C30.9199 37.493 31.6199 34.5931 32.6199 31.993C34.0199 28.5931 35.5199 25.293 37.6199 22.293C39.9199 18.993 42.8199 15.993 46.4199 14.093C47.6199 13.093 48.9199 12.493 50.3199 12.193ZM48.7199 16.9931C46.9199 17.8931 45.2199 19.0931 43.7199 20.5931C40.6199 23.493 38.5199 27.1931 36.9199 31.0931C35.2199 35.493 34.2199 40.093 34.0199 44.793C34.0199 45.6931 33.9199 46.5931 34.1199 47.3931C37.5199 45.7931 40.9199 43.893 44.2199 41.993C47.3199 40.0931 50.5199 37.993 53.0199 35.293C54.6199 33.693 56.1199 31.7931 57.0199 29.6931C58.2199 26.9931 58.5199 23.893 58.1199 20.993C57.9199 19.693 57.5199 18.2931 56.6199 17.2931C55.8199 16.3931 54.5199 15.993 53.3199 15.893C51.7199 15.7931 50.1199 16.2931 48.7199 16.9931Z" fill="#005AC2"/>
<path d="M81.6195 33.493C82.0195 33.293 82.6195 33.393 82.9195 33.793C84.2195 35.493 85.6195 37.193 86.9195 38.893C87.3195 39.293 87.2195 39.993 86.7195 40.393C85.0195 41.693 83.3195 43.093 81.6195 44.393C81.1195 44.793 80.4195 44.693 80.1195 44.193C78.8195 42.493 77.5195 40.793 76.2195 39.193C75.8195 38.793 75.9195 38.093 76.3195 37.693C76.7195 37.293 77.2195 36.993 77.7195 36.593C78.9195 35.493 80.2195 34.393 81.6195 33.493Z" fill="#005AC2"/>
</svg>
