<svg width="223" height="66" viewBox="0 0 223 66" fill="none" xmlns="http://www.w3.org/2000/svg">
<g filter="url(#filter0_d_2_20045)">
<rect x="2" y="1" width="219" height="62" rx="8" fill="white"/>
<rect x="2.5" y="1.5" width="218" height="61" rx="7.5" stroke="#D0D5DD"/>
<path d="M104 23.508C104.512 23.332 104.976 23.1 105.392 22.812C105.808 22.524 106.132 22.216 106.364 21.888C106.604 21.56 106.724 21.252 106.724 20.964C106.724 20.556 106.52 19.556 106.112 17.964L107.036 17.616C107.212 18.184 107.356 18.784 107.468 19.416C107.588 20.048 107.648 20.564 107.648 20.964C107.648 21.436 107.508 21.896 107.228 22.344C106.948 22.8 106.56 23.208 106.064 23.568C105.576 23.936 105.024 24.228 104.408 24.444L104 23.508ZM106.388 14.724L107.24 15.576L106.388 16.428L105.536 15.576L106.388 14.724ZM109.097 20.928C109.153 20.448 109.181 19.636 109.181 18.492C109.181 17.404 109.157 16.28 109.109 15.12C109.069 13.952 109.021 13.196 108.965 12.852L109.925 12.648C109.973 13.016 110.021 13.82 110.069 15.06C110.125 16.292 110.153 17.464 110.153 18.576C110.153 19.696 110.125 20.52 110.069 21.048L109.097 20.928ZM117.642 21.036C117.01 21.036 116.47 20.952 116.022 20.784C115.574 20.608 115.218 20.408 114.954 20.184L115.422 19.392C115.454 19.408 115.57 19.476 115.77 19.596C115.978 19.708 116.238 19.804 116.55 19.884C116.87 19.964 117.206 20.004 117.558 20.004C117.99 20.004 118.342 19.944 118.614 19.824C118.894 19.696 119.074 19.556 119.154 19.404C119.194 19.308 119.214 19.208 119.214 19.104C119.214 18.728 119.006 18.264 118.59 17.712C118.182 17.152 117.558 16.564 116.718 15.948L117.258 15.012C118.146 15.684 118.838 16.38 119.334 17.1C119.838 17.812 120.09 18.48 120.09 19.104C120.09 19.392 120.038 19.652 119.934 19.884C119.774 20.252 119.486 20.536 119.07 20.736C118.654 20.936 118.178 21.036 117.642 21.036ZM120.942 23.484C122.078 23.236 122.95 22.908 123.558 22.5C124.174 22.1 124.542 21.604 124.662 21.012C123.798 21.02 123.094 20.96 122.55 20.832C122.006 20.696 121.63 20.42 121.422 20.004C121.294 19.748 121.23 19.448 121.23 19.104C121.23 18.688 121.318 18.272 121.494 17.856C121.678 17.44 121.918 17.096 122.214 16.824C122.518 16.552 122.842 16.416 123.186 16.416C123.618 16.416 123.998 16.588 124.326 16.932C124.662 17.276 124.93 17.716 125.13 18.252C125.338 18.788 125.47 19.344 125.526 19.92H125.97L126.03 20.46L125.97 21H125.514C125.378 21.864 124.938 22.592 124.194 23.184C123.458 23.776 122.478 24.196 121.254 24.444L120.942 23.484ZM122.19 19.404C122.318 19.604 122.598 19.74 123.03 19.812C123.47 19.884 124.018 19.92 124.674 19.92C124.594 19.272 124.422 18.708 124.158 18.228C123.894 17.748 123.562 17.496 123.162 17.472C122.986 17.464 122.814 17.536 122.646 17.688C122.478 17.84 122.342 18.036 122.238 18.276C122.134 18.516 122.082 18.744 122.082 18.96C122.082 19.136 122.118 19.284 122.19 19.404ZM129.359 21C129.055 21 128.771 20.924 128.507 20.772C128.243 20.612 128.019 20.392 127.835 20.112C127.491 20.704 126.935 21 126.167 21H125.819V19.92H126.155C126.595 19.92 126.915 19.828 127.115 19.644C127.323 19.452 127.435 19.148 127.451 18.732V18.612C127.459 18.428 127.427 17.524 127.355 15.9C127.291 14.276 127.239 13.26 127.199 12.852L128.159 12.648C128.223 13.152 128.287 14.804 128.351 17.604C128.375 18.108 128.387 18.448 128.387 18.624C128.435 19.488 128.759 19.92 129.359 19.92H129.491L129.551 20.46L129.491 21H129.359ZM129.37 19.92H129.994C130.634 19.92 131.094 19.836 131.374 19.668C131.662 19.5 131.806 19.24 131.806 18.888C131.806 18.64 131.726 18.26 131.566 17.748C131.406 17.236 131.274 16.864 131.17 16.632L132.034 16.176C132.186 16.512 132.342 16.956 132.502 17.508C132.662 18.052 132.742 18.516 132.742 18.9C132.734 19.588 132.494 20.112 132.022 20.472C131.55 20.824 130.874 21 129.994 21H129.37V19.92ZM131.266 13.728L132.118 14.58L131.266 15.432L130.414 14.58L131.266 13.728ZM134.21 20.928C134.266 20.448 134.294 19.636 134.294 18.492C134.294 17.404 134.27 16.28 134.222 15.12C134.182 13.952 134.134 13.196 134.078 12.852L135.038 12.648C135.086 13.016 135.134 13.82 135.182 15.06C135.238 16.292 135.266 17.464 135.266 18.576C135.266 19.696 135.238 20.52 135.182 21.048L134.21 20.928ZM139.157 21.036C138.525 21.036 137.985 20.952 137.537 20.784C137.089 20.608 136.733 20.408 136.469 20.184L136.937 19.392C136.969 19.408 137.085 19.476 137.285 19.596C137.493 19.708 137.753 19.804 138.065 19.884C138.385 19.964 138.721 20.004 139.073 20.004C139.505 20.004 139.857 19.944 140.129 19.824C140.409 19.696 140.589 19.556 140.669 19.404C140.709 19.308 140.729 19.208 140.729 19.104C140.729 18.728 140.521 18.264 140.105 17.712C139.697 17.152 139.073 16.564 138.233 15.948L138.773 15.012C139.661 15.684 140.353 16.38 140.849 17.1C141.353 17.812 141.605 18.48 141.605 19.104C141.605 19.392 141.553 19.652 141.449 19.884C141.289 20.252 141.001 20.536 140.585 20.736C140.169 20.936 139.693 21.036 139.157 21.036Z" fill="#344054"/>
<path d="M30 49.3485C30.8017 49.0402 31.5355 48.664 32.2015 48.22C32.8675 47.776 33.3917 47.3258 33.774 46.8695C34.1563 46.4132 34.3475 46.0062 34.3475 45.6485C34.3475 45.3772 34.2735 44.927 34.1255 44.298C33.9775 43.6567 33.7802 42.855 33.5335 41.893C33.4348 41.5477 33.367 41.2887 33.33 41.116L35.18 40.3945C35.4637 41.2578 35.6918 42.1767 35.8645 43.151C36.0495 44.113 36.142 44.9455 36.142 45.6485C36.142 46.8202 35.661 47.9117 34.699 48.923C33.7493 49.9343 32.5037 50.7483 30.962 51.365L30 49.3485ZM37.4753 49.2745C39.202 48.9045 40.534 48.4605 41.4713 47.9425C42.4086 47.4245 43.0068 46.7832 43.2658 46.0185C41.9091 46.0062 40.8115 45.8828 39.9728 45.6485C39.1341 45.4142 38.5483 44.9517 38.2153 44.261C38.0056 43.8293 37.9008 43.3237 37.9008 42.744C37.9008 42.041 38.0488 41.3442 38.3448 40.6535C38.6408 39.9505 39.0416 39.377 39.5473 38.933C40.0653 38.4767 40.6265 38.2485 41.2308 38.2485C41.8845 38.2485 42.4765 38.5013 43.0068 39.007C43.5495 39.5003 43.9935 40.1602 44.3388 40.9865C44.6841 41.8005 44.9123 42.6762 45.0233 43.6135H45.7818L45.9113 44.7975L45.7818 46H44.9863C44.7026 47.3567 43.9688 48.4975 42.7848 49.4225C41.6131 50.3598 40.0838 51.0073 38.1968 51.365L37.4753 49.2745ZM39.7323 42.9105C39.9173 43.1695 40.312 43.3483 40.9163 43.447C41.533 43.5457 42.3223 43.6012 43.2843 43.6135C43.124 42.7255 42.8465 41.9732 42.4518 41.3565C42.0571 40.7398 41.5946 40.4315 41.0643 40.4315C40.8053 40.4315 40.5586 40.5363 40.3243 40.746C40.1023 40.9433 39.9235 41.1962 39.7878 41.5045C39.6521 41.8128 39.5843 42.1027 39.5843 42.374C39.5843 42.5713 39.6336 42.7502 39.7323 42.9105ZM45.5349 43.6135H45.6829C46.6326 43.6135 47.3726 43.5703 47.9029 43.484C48.4333 43.3977 48.8156 43.2682 49.0499 43.0955C49.2843 42.9105 49.4384 42.6638 49.5124 42.3555C49.5494 42.1828 49.5679 41.9978 49.5679 41.8005C49.5679 41.4922 49.5371 41.1345 49.4754 40.7275C49.4138 40.3082 49.3768 40.0492 49.3644 39.9505L51.0849 39.6175C51.1836 40.1478 51.2514 40.7028 51.2884 41.2825C51.3254 41.8498 51.3439 42.3 51.3439 42.633C51.3933 42.9167 51.5413 43.151 51.7879 43.336C52.0346 43.521 52.3799 43.6135 52.8239 43.6135H52.9349L53.0644 44.7975L52.9349 46H52.8239C52.3183 46 51.8558 45.8828 51.4364 45.6485C51.0171 45.4018 50.6656 45.075 50.3819 44.668C50.0489 45.149 49.5186 45.4943 48.7909 45.704C48.0756 45.9013 47.0396 46 45.6829 46H45.5349V43.6135ZM47.1259 35.307L48.6059 36.787L47.1259 38.267L45.6459 36.787L47.1259 35.307ZM50.4004 35.307L51.8804 36.787L50.4004 38.267L48.9204 36.787L50.4004 35.307ZM63.0664 46C62.4744 45.9877 61.9688 45.8397 61.5494 45.556C61.1424 45.26 60.8403 44.8407 60.6429 44.298C60.3223 44.8283 59.9523 45.2415 59.5329 45.5375C59.1136 45.8335 58.6573 45.9877 58.1639 46H58.0714C57.5288 46 57.0601 45.852 56.6654 45.556C56.2831 45.2477 56.0303 44.8407 55.9069 44.335C55.5123 44.8777 55.0559 45.2908 54.5379 45.5745C54.0199 45.8582 53.4588 46 52.8544 46H52.7804L52.6509 44.7975L52.7804 43.6135H52.8729C53.2799 43.6135 53.6746 43.521 54.0569 43.336C54.4393 43.151 54.7291 42.9228 54.9264 42.6515C55.1854 42.3308 55.3828 41.9793 55.5184 41.597C55.6664 41.2147 55.7898 40.8138 55.8884 40.3945L57.6274 40.5795C57.6274 40.5918 57.5966 40.7337 57.5349 41.005C57.3499 41.7203 57.2574 42.2507 57.2574 42.596C57.2574 42.9413 57.3253 43.2003 57.4609 43.373C57.5966 43.5333 57.8124 43.6135 58.1084 43.6135H58.1639C58.8053 43.6135 59.3233 43.2435 59.7179 42.5035C59.9399 42.0718 60.1003 41.6093 60.1989 41.116C60.2976 40.6103 60.3531 40.3267 60.3654 40.265L62.0859 40.339C62.0736 40.4253 62.0304 40.672 61.9564 41.079C61.8948 41.4737 61.8639 41.8252 61.8639 42.1335C61.8639 43.1202 62.2771 43.6135 63.1034 43.6135C63.4981 43.6135 63.8003 43.5025 64.0099 43.2805C64.2319 43.0462 64.3429 42.7378 64.3429 42.3555C64.3429 41.9855 64.2258 41.4552 63.9914 40.7645C63.7571 40.0615 63.5413 39.4757 63.3439 39.007L65.0274 38.0635C65.2741 38.5692 65.5208 39.2598 65.7674 40.1355C66.0264 40.9988 66.1559 41.7573 66.1559 42.411C66.1559 43.0647 66.0264 43.669 65.7674 44.224C65.5084 44.7667 65.1508 45.1983 64.6944 45.519C64.2381 45.8397 63.7201 46 63.1404 46H63.1034H63.0664ZM68.1143 45.889C68.213 45.149 68.2623 43.8972 68.2623 42.1335C68.2623 40.4438 68.213 38.674 68.1143 36.824C68.028 34.974 67.9293 33.7098 67.8183 33.0315L69.8533 32.569C69.952 33.235 70.0445 34.4683 70.1308 36.269C70.2172 38.0573 70.2603 39.8087 70.2603 41.523C70.2603 43.558 70.1925 45.0873 70.0568 46.111L68.1143 45.889ZM82.146 51.2725C80.999 51.2725 79.9815 51.0443 79.0935 50.588C78.2178 50.144 77.5457 49.4903 77.077 48.627C76.6083 47.7637 76.411 46.7338 76.485 45.5375C76.522 44.8468 76.6577 44.1192 76.892 43.3545C77.1387 42.5898 77.4162 41.8807 77.7245 41.227L79.334 41.9855C79.0133 42.7008 78.7667 43.3545 78.594 43.9465C78.4213 44.5385 78.335 45.1243 78.335 45.704C78.335 46.7647 78.6618 47.5602 79.3155 48.0905C79.9692 48.6208 80.9127 48.886 82.146 48.886C82.8367 48.886 83.4903 48.8058 84.107 48.6455C84.736 48.4852 85.2663 48.2817 85.698 48.035C86.1297 47.7883 86.4133 47.554 86.549 47.332C86.364 47.11 85.9077 46.7832 85.18 46.3515C84.4523 45.9322 83.6877 45.5683 82.886 45.26L83.404 43.003C84.4153 43.2003 85.3095 43.3483 86.0865 43.447C86.8758 43.5457 87.6467 43.6012 88.399 43.6135H88.732L88.8615 44.7975L88.732 46H88.399C88.1893 46 87.8625 45.9877 87.4185 45.963C88.0105 46.4933 88.3065 46.9867 88.3065 47.443C88.2942 48.035 88.0105 48.627 87.4555 49.219C86.9005 49.8233 86.1543 50.3167 85.217 50.699C84.2797 51.0813 83.256 51.2725 82.146 51.2725ZM94.0103 46C93.5416 46 93.0915 45.8828 92.6598 45.6485C92.2405 45.4018 91.8766 45.0627 91.5683 44.631C91.2846 45.0627 90.9208 45.4018 90.4768 45.6485C90.0328 45.8828 89.521 46 88.9413 46H88.4788V43.6135H88.9228C89.5518 43.6135 90.0081 43.4902 90.2918 43.2435C90.5878 42.9845 90.7358 42.5713 90.7358 42.004V41.9115C90.7481 41.6032 90.6926 40.2588 90.5693 37.8785C90.4583 35.4858 90.3596 33.8702 90.2733 33.0315L92.3083 32.5875C92.3946 33.4385 92.4995 35.8743 92.6228 39.895L92.6968 41.93C92.7708 43.0523 93.2086 43.6135 94.0103 43.6135H94.2138L94.3433 44.7975L94.2138 46H94.0103ZM94.0067 43.6135H94.8577C96.1157 43.6135 97.0037 43.5025 97.5217 43.2805C98.0397 43.0462 98.2987 42.6885 98.2987 42.2075C98.2863 41.8992 98.1507 41.3688 97.8917 40.6165C97.645 39.8518 97.4477 39.3092 97.2997 38.9885L99.0387 38.045C99.2853 38.6 99.532 39.2907 99.7787 40.117C100.025 40.9433 100.149 41.671 100.149 42.3C100.136 43.5087 99.717 44.4275 98.8907 45.0565C98.0643 45.6855 96.8372 46 95.2092 46H94.0252L94.0067 43.6135ZM99.1497 48.6825C99.1497 48.6825 98.8413 48.9908 98.2247 49.6075L97.7622 50.07L96.3562 48.6825L97.2997 47.739L97.7622 47.2765C97.9965 47.5108 98.1137 47.628 98.1137 47.628C98.6933 48.2077 99.0387 48.5592 99.1497 48.6825ZM94.3027 50.07L92.9152 48.6825L94.3027 47.2765C94.9193 47.8932 95.2277 48.2015 95.2277 48.2015L95.7087 48.6825L94.3027 50.07ZM96.8742 51.217L96.0417 52.0495L94.8022 50.81L96.0417 49.552L97.2812 50.81L96.8742 51.217ZM119.324 46C118.362 46 117.579 45.7163 116.975 45.149C116.864 46.925 116.315 48.3002 115.328 49.2745C114.354 50.2612 113.022 50.7545 111.332 50.7545C110.358 50.7545 109.464 50.5572 108.65 50.1625C107.848 49.7802 107.207 49.2252 106.726 48.4975C106.257 47.7698 106.023 46.925 106.023 45.963C106.023 45.26 106.146 44.4768 106.393 43.6135C106.652 42.7502 106.948 41.967 107.281 41.264L108.89 42.0225C108.57 42.7255 108.323 43.3545 108.15 43.9095C107.978 44.4645 107.891 45.0195 107.891 45.5745C107.891 46.4008 108.206 47.073 108.835 47.591C109.464 48.109 110.296 48.368 111.332 48.368C113.972 48.368 115.248 47.0052 115.162 44.2795C115.088 41.9485 114.977 39.7655 114.829 37.7305C114.693 35.6832 114.557 34.1168 114.422 33.0315L116.457 32.569C116.617 33.9257 116.771 36.9782 116.919 41.7265C117.018 42.3678 117.258 42.8427 117.641 43.151C118.023 43.4593 118.584 43.6135 119.324 43.6135C120.952 43.6135 121.951 43.262 122.321 42.559C122.272 41.93 121.927 41.1777 121.285 40.302C120.656 39.414 119.713 38.4582 118.455 37.4345L118.677 35.3255L125.503 32.4025L126.169 34.3265L120.675 36.6945C121.119 37.0645 121.612 37.564 122.155 38.193C122.697 38.822 123.172 39.5188 123.579 40.2835C123.986 41.0482 124.19 41.7697 124.19 42.448C124.19 42.707 124.153 42.966 124.079 43.225C123.807 44.15 123.246 44.8468 122.395 45.3155C121.557 45.7718 120.533 46 119.324 46ZM118.806 33.198L124.763 30.7375L125.059 31.5515L118.695 34.234L118.806 33.198ZM125.694 49.2745C127.42 48.9045 128.752 48.4605 129.69 47.9425C130.627 47.4245 131.225 46.7832 131.484 46.0185C130.127 46.0062 129.03 45.8828 128.191 45.6485C127.352 45.4142 126.767 44.9517 126.434 44.261C126.224 43.8293 126.119 43.3237 126.119 42.744C126.119 42.041 126.267 41.3442 126.563 40.6535C126.859 39.9505 127.26 39.377 127.766 38.933C128.284 38.4767 128.845 38.2485 129.449 38.2485C130.103 38.2485 130.695 38.5013 131.225 39.007C131.768 39.5003 132.212 40.1602 132.557 40.9865C132.902 41.8005 133.131 42.6762 133.242 43.6135H134L134.13 44.7975L134 46H133.205C132.921 47.3567 132.187 48.4975 131.003 49.4225C129.831 50.3598 128.302 51.0073 126.415 51.365L125.694 49.2745ZM127.951 42.9105C128.136 43.1695 128.53 43.3483 129.135 43.447C129.751 43.5457 130.541 43.6012 131.503 43.6135C131.342 42.7255 131.065 41.9732 130.67 41.3565C130.275 40.7398 129.813 40.4315 129.283 40.4315C129.024 40.4315 128.777 40.5363 128.543 40.746C128.321 40.9433 128.142 41.1962 128.006 41.5045C127.87 41.8128 127.803 42.1027 127.803 42.374C127.803 42.5713 127.852 42.7502 127.951 42.9105ZM133.753 43.6135H134.327C135.424 43.6135 136.312 43.5272 136.991 43.3545C137.681 43.1818 138.15 42.9352 138.397 42.6145C138.446 42.0718 138.144 41.3812 137.49 40.5425C136.837 39.6915 135.862 38.7542 134.567 37.7305L134.789 35.603L141.616 32.717L142.282 34.6225L136.787 36.9905C137.638 37.7182 138.421 38.5753 139.137 39.562C139.852 40.5487 140.21 41.5045 140.21 42.4295C140.21 42.7008 140.173 42.966 140.099 43.225C139.827 44.1623 139.186 44.8592 138.175 45.3155C137.176 45.7718 135.893 46 134.327 46H133.753V43.6135ZM134.993 33.4015L140.95 30.9225L141.246 31.7365L134.882 34.4375L134.993 33.4015Z" fill="#344054"/>
<g clip-path="url(#clip0_2_20045)">
<path d="M173.079 31.145L157.142 47.8413C157.321 48.4755 157.643 49.0604 158.082 49.5513C158.522 50.0422 159.068 50.4261 159.679 50.6736C160.29 50.9211 160.949 51.0257 161.606 50.9793C162.264 50.933 162.902 50.737 163.472 50.4063L181.403 40.1938L173.079 31.145Z" fill="#EA4335"/>
<path d="M189.193 28.307L181.439 23.8657L172.71 31.5251L181.474 40.1701L189.169 35.7763C189.851 35.4194 190.422 34.8827 190.82 34.2243C191.219 33.566 191.429 32.8112 191.429 32.0417C191.429 31.2721 191.219 30.5173 190.82 29.859C190.422 29.2006 189.851 28.6639 189.169 28.307H189.193Z" fill="#FBBC04"/>
<path d="M157.142 16.1587C157.046 16.5148 156.998 16.8823 157 17.2512V46.7487C157.001 47.1174 157.049 47.4845 157.142 47.8412L173.625 31.5724L157.142 16.1587Z" fill="#4285F4"/>
<path d="M173.197 32L181.439 23.8656L163.531 13.6056C162.857 13.2111 162.091 13.0021 161.31 13C160.368 12.9981 159.45 13.3046 158.697 13.8728C157.945 14.4409 157.399 15.2395 157.142 16.1469L173.197 32Z" fill="#34A853"/>
</g>
</g>
<defs>
<filter id="filter0_d_2_20045" x="0" y="0" width="223" height="66" filterUnits="userSpaceOnUse" color-interpolation-filters="sRGB">
<feFlood flood-opacity="0" result="BackgroundImageFix"/>
<feColorMatrix in="SourceAlpha" type="matrix" values="0 0 0 0 0 0 0 0 0 0 0 0 0 0 0 0 0 0 127 0" result="hardAlpha"/>
<feOffset dy="1"/>
<feGaussianBlur stdDeviation="1"/>
<feColorMatrix type="matrix" values="0 0 0 0 0.0627451 0 0 0 0 0.0941176 0 0 0 0 0.156863 0 0 0 0.05 0"/>
<feBlend mode="normal" in2="BackgroundImageFix" result="effect1_dropShadow_2_20045"/>
<feBlend mode="normal" in="SourceGraphic" in2="effect1_dropShadow_2_20045" result="shape"/>
</filter>
<clipPath id="clip0_2_20045">
<rect width="38" height="38" fill="white" transform="translate(155 13)"/>
</clipPath>
</defs>
</svg>
