<svg width="110" height="36" viewBox="0 0 110 36" fill="none" xmlns="http://www.w3.org/2000/svg">
<g clip-path="url(#clip0_107_3387)">
<path d="M0.525391 27.8199C1.40539 27.4599 2.21206 27.0399 2.94539 26.5599C3.67872 26.0932 4.25206 25.6266 4.66539 25.1599C5.09206 24.6932 5.30539 24.2932 5.30539 23.9599C5.30539 23.4132 4.95206 21.9266 4.24539 19.4999L4.14539 19.0999L6.38539 18.2199C6.70539 19.1399 6.95872 20.1266 7.14539 21.1799C7.33206 22.2199 7.42539 23.1466 7.42539 23.9599C7.42539 25.2666 6.91206 26.4732 5.88539 27.5799C4.85872 28.6999 3.47872 29.6199 1.74539 30.3399L0.525391 27.8199ZM13.8202 24.4999C12.3536 24.4999 11.2936 24.0799 10.6402 23.2399C10.0002 22.3999 9.68023 21.1199 9.68023 19.3999C9.6669 17.7599 9.61357 16.0999 9.52023 14.4199C9.44023 12.7266 9.32023 11.3333 9.16023 10.2399L11.6402 9.69992C11.7736 10.6733 11.8802 11.9933 11.9602 13.6599C12.0402 15.3133 12.0802 16.8466 12.0802 18.2599V19.0199C12.0669 19.6999 12.1002 20.2132 12.1802 20.5599C12.2602 20.9066 12.4202 21.1532 12.6602 21.2999C12.9136 21.4466 13.3002 21.5199 13.8202 21.5199H13.9202L14.0802 23.0199L13.9202 24.4999H13.8202ZM13.7062 21.5199H14.6862C16.0062 21.5199 16.9395 21.4066 17.4862 21.1799C18.0328 20.9532 18.3062 20.6066 18.3062 20.1399C18.2928 19.8466 18.1395 19.2866 17.8462 18.4599C17.5528 17.6199 17.3395 17.0599 17.2062 16.7799L19.3262 15.6199C19.5928 16.1799 19.8595 16.9266 20.1262 17.8599C20.3928 18.7799 20.5262 19.5866 20.5262 20.2799C20.5128 21.6399 20.0528 22.6866 19.1462 23.4199C18.2395 24.1399 16.8995 24.4999 15.1262 24.4999H13.7262L13.7062 21.5199ZM18.2462 28.9599C17.1262 29.0666 16.2928 29.1399 15.7462 29.1799L13.1662 29.3999V27.1199C14.3262 27.0132 15.1528 26.9399 15.6462 26.8999C16.1662 26.8599 17.0328 26.7866 18.2462 26.6799V28.9599ZM29.8257 24.7399C27.5057 24.7266 25.679 24.3532 24.3457 23.6199C23.0124 22.8866 22.2857 21.8732 22.1657 20.5799C22.1524 20.4732 22.1457 20.3132 22.1457 20.0999C22.1457 19.5266 22.2257 18.9066 22.3857 18.2399C22.5457 17.5732 22.739 16.9799 22.9657 16.4599L24.8857 17.3799C24.499 18.5932 24.3257 19.4666 24.3657 19.9999C24.459 20.5066 24.999 20.9266 25.9857 21.2599C26.9724 21.5932 28.319 21.7599 30.0257 21.7599V21.7799H30.5057C31.599 21.7799 32.5257 21.6599 33.2857 21.4199C34.0457 21.1799 34.5524 20.8932 34.8057 20.5599C34.699 19.8932 34.3057 19.1266 33.6257 18.2599C32.9457 17.3799 31.9457 16.3999 30.6257 15.3199L30.9057 12.7199L38.3257 9.59992L39.1257 11.9799L33.3457 14.4399C33.7324 14.7733 34.2124 15.2666 34.7857 15.9199C35.359 16.5599 35.8724 17.2999 36.3257 18.1399C36.7924 18.9799 37.0257 19.7866 37.0257 20.5599C37.0257 20.8399 36.999 21.0866 36.9457 21.2999C36.6657 22.3932 35.9457 23.2399 34.7857 23.8399C33.6257 24.4399 32.199 24.7399 30.5057 24.7399H30.0257H29.8457H29.8257ZM52.1391 24.4999C50.4325 24.4999 49.2925 23.6999 48.7191 22.0999C47.9191 23.0199 46.8458 23.7332 45.4991 24.2399C44.1525 24.7466 42.6791 25.0266 41.0791 25.0799L40.3791 22.3399C40.9658 22.2999 41.5525 22.2399 42.1391 22.1599C42.2858 21.7466 42.3591 21.2866 42.3591 20.7799C42.3591 19.0732 41.5725 16.4466 39.9991 12.8999L42.0991 11.4399C42.8858 13.0533 43.4791 14.5733 43.8791 15.9999C44.2925 17.4266 44.4991 18.6932 44.4991 19.7999C44.4991 20.5199 44.4058 21.1732 44.2191 21.7599C45.2858 21.4799 46.1191 21.0866 46.7191 20.5799C47.3191 20.0599 47.6191 19.3799 47.6191 18.5399C47.6058 17.2066 47.5458 15.9532 47.4391 14.7799C47.3325 13.6066 47.1725 12.0933 46.9591 10.2399L49.4591 9.69992C49.8858 12.9399 50.0791 15.8732 50.0391 18.4999V18.6599C50.0791 19.4066 50.1658 19.9866 50.2991 20.3999C50.4325 20.7999 50.6458 21.0866 50.9391 21.2599C51.2325 21.4332 51.6458 21.5199 52.1791 21.5199H52.3991V24.4999H52.1391ZM52.2627 21.5199H52.6227C53.6627 21.5199 54.5161 20.8932 55.1827 19.6399C55.8494 18.3999 56.4894 17.4732 57.1027 16.8599C57.7161 16.2332 58.4027 15.9199 59.1627 15.9199C59.8827 15.9199 60.5161 16.1532 61.0627 16.6199C61.6094 17.0732 62.0227 17.6666 62.3027 18.3999C62.5961 19.1199 62.7427 19.8799 62.7427 20.6799C62.7427 21.4532 62.5961 22.1732 62.3027 22.8399C62.0094 23.4932 61.5827 23.9866 61.0227 24.3199C60.7294 24.5066 60.3694 24.5999 59.9427 24.5999C58.9161 24.5999 57.5561 24.0666 55.8627 22.9999C55.0361 23.9999 53.9427 24.4999 52.5827 24.4999H52.2027L52.2627 21.5199ZM57.1427 20.6399C57.7694 21.0266 58.3361 21.3332 58.8427 21.5599C59.3494 21.7732 59.7361 21.8799 60.0027 21.8799C60.1361 21.8799 60.2294 21.8599 60.2827 21.8199C60.4161 21.7266 60.5161 21.5932 60.5827 21.4199C60.6627 21.2332 60.7027 21.0199 60.7027 20.7799C60.7027 20.2466 60.5561 19.7532 60.2627 19.2999C59.9694 18.8332 59.5827 18.5999 59.1027 18.5999C58.5027 18.5999 57.8494 19.2799 57.1427 20.6399ZM63.609 7.27992L68.009 5.91992V7.27992L63.609 8.61992V7.27992ZM64.8132 24.3799C64.9465 23.4999 65.0132 22.1399 65.0132 20.2999C65.0132 18.4599 64.9532 16.5332 64.8332 14.5199C64.7265 12.4933 64.5999 11.0733 64.4532 10.2599L66.9532 9.67992C67.0732 10.4533 67.1799 11.8066 67.2732 13.7399C67.3665 15.6732 67.4132 17.5732 67.4132 19.4399C67.4132 21.7466 67.3332 23.4799 67.1732 24.6399L64.8132 24.3799Z" fill="#1B1B1F"/>
</g>
<path fill-rule="evenodd" clip-rule="evenodd" d="M103.52 24.0651C105.109 23.3706 106.22 21.7848 106.22 19.9395C106.22 17.4542 104.205 15.4395 101.72 15.4395C99.2346 15.4395 97.2199 17.4542 97.2199 19.9395C97.2199 21.7848 98.3305 23.3706 99.9199 24.0651V25.8109C96.7546 27.23 94.2018 27.8767 91.6982 27.8757C88.9245 27.8746 86.0226 27.0788 82.2244 25.3253L80.7153 28.5937C84.751 30.4569 88.1941 31.4744 91.6969 31.4757C95.206 31.4771 98.5866 30.4588 102.498 28.5823L103.52 28.0924V26.9595V24.0651ZM101.72 21.6993C100.748 21.6993 99.96 20.9113 99.96 19.9395C99.96 18.9675 100.748 18.1796 101.72 18.1796C102.692 18.1796 103.48 18.9675 103.48 19.9395C103.48 20.9113 102.692 21.6993 101.72 21.6993Z" fill="#005AC2"/>
<path fill-rule="evenodd" clip-rule="evenodd" d="M91.9147 3.80762L92.9303 4.50649L102.74 11.2565L103.52 11.793V12.7394V15.0938C102.969 14.853 102.36 14.7194 101.72 14.7194C101.08 14.7194 100.471 14.853 99.9201 15.0938V13.6858L91.9055 8.17111L83.8101 13.6907V15.7757C85.4473 16.4488 86.6001 18.0595 86.6001 19.9394C86.6001 22.4246 84.5854 24.4394 82.1001 24.4394C79.6148 24.4394 77.6001 22.4246 77.6001 19.9394C77.6001 18.1291 78.669 16.5685 80.2101 15.8543V12.7394V11.7881L80.9961 11.2521L90.8961 4.50215L91.9147 3.80762ZM80.3403 19.9394C80.3403 20.9112 81.1282 21.6992 82.1001 21.6992C83.072 21.6992 83.8599 20.9112 83.8599 19.9394C83.8599 18.9674 83.072 18.1795 82.1001 18.1795C81.1282 18.1795 80.3403 18.9674 80.3403 19.9394Z" fill="#001A41"/>
<defs>
<clipPath id="clip0_107_3387">
<rect width="68" height="25" fill="white" transform="translate(0 5.5)"/>
</clipPath>
</defs>
</svg>
