<svg width="96" height="96" viewBox="0 0 96 96" fill="none" xmlns="http://www.w3.org/2000/svg">
<path d="M42.1669 8.86879C43.1893 6.40456 44.5398 4.01795 46.2761 2C46.6041 3.1642 46.9513 4.3284 47.6844 5.33738C48.6105 6.67621 49.8452 7.93743 50.1345 9.60612C50.3275 11.3718 49.1699 12.8271 48.3018 14.2435C47.3758 15.6018 46.5655 17.154 45.2536 18.1824C44.8099 17.1928 44.4819 16.1062 43.7874 15.2525C43.0736 14.2823 42.109 13.4674 41.7231 12.2838C41.3566 11.139 41.7231 9.95538 42.1669 8.86879ZM42.6299 21.1511C45.6009 18.9585 48.9577 16.9988 52.7197 16.7271C54.1666 16.6107 55.6907 16.7271 56.9254 17.5615C58.7389 18.7063 59.935 20.666 60.4366 22.7422C60.6681 24.1004 60.6295 25.4587 60.6295 26.8363C60.4855 29.6587 59.482 32.3683 57.755 34.5976C55.8786 37.2515 53.1213 39.1438 49.9802 39.9336C48.0181 40.2488 46.0142 40.183 44.0768 39.7395C40.8936 39.0604 37.884 37.7992 34.7394 36.9649C34.2764 36.8678 33.8133 36.7126 33.3503 36.829C32.868 37.5081 32.7523 38.3619 32.5208 39.138C31.6912 42.5142 30.6494 45.9874 31.2282 49.4994C31.614 51.3427 32.1928 53.2831 33.6011 54.6025C34.9323 55.8637 36.8808 56.1742 38.6364 55.9607C41.5495 55.5727 44.2697 54.3309 46.8163 52.9338C51.2921 50.0621 55.4013 46.6471 60.1086 44.1441C61.6134 43.368 63.1375 42.456 64.8738 42.3202C65.765 42.1856 66.6757 42.2859 67.5168 42.6112C68.5586 43.1933 69.2338 44.2217 69.6389 45.2889C67.4589 45.3083 65.3947 46.162 63.5233 47.2098C62.3079 47.8889 61.2275 48.7621 60.1086 49.5964C58.218 51.0517 56.2695 52.4487 54.4367 53.9816C51.66 56.5035 48.6198 58.7155 45.3694 60.5787C42.0897 62.5191 38.2505 63.6833 34.4307 63.2564C32.27 62.946 30.0899 61.6847 29.2218 59.5698C27.8135 56.3682 27.9485 52.7786 28.3151 49.3636C28.7588 44.8814 30.1671 40.5739 31.6719 36.3633C29.434 36.0723 28.0064 38.1679 26 38.6723C26.3087 37.1783 27.3312 35.9947 28.2765 34.8499C30.0271 32.9787 32.1242 31.4693 34.45 30.4065C35.4339 29.8244 35.9741 28.7766 36.5721 27.8453C38.2058 25.2895 40.2533 23.0269 42.6299 21.1511ZM45.4658 22.2765C42.572 23.8288 40.064 26.002 37.9226 28.4468C37.5367 28.8737 37.2088 29.3587 36.9194 29.8632C42.6299 29.7468 47.7037 32.929 53.2792 33.6275C54.5332 33.8215 55.9222 33.4334 56.7132 32.4051C58.681 29.8826 58.6231 26.002 56.6167 23.4989C55.5471 22.2998 54.1057 21.4998 52.5268 21.2287C50.1243 20.7171 47.619 21.0889 45.4658 22.2765Z" fill="#005AC2"/>
<path d="M64.8758 49.3251C66.5042 48.1163 68.4494 47.4146 70.4705 47.3071C72.2454 47.5012 73.4029 49.131 74.001 50.6833C72.7856 50.8191 71.5316 50.8773 70.3934 51.4012C68.7728 52.1192 67.4609 53.3416 66.0719 54.4282C64.1427 55.961 62.445 57.7655 60.7087 59.5118C59.3582 60.8701 57.892 62.1119 56.5223 63.4507C54.1493 65.7791 51.3905 67.9523 48.0723 68.6896C44.0209 69.4464 39.8924 67.603 36.8828 64.9254C39.5451 65.003 42.246 64.9254 44.7926 64.0716C47.7433 62.8375 50.4737 61.1269 52.876 59.0074C54.5352 57.6491 56.2715 56.3491 57.892 54.9326C60.1492 52.9729 62.4064 51.0132 64.8565 49.3251H64.8758Z" fill="#005AC2"/>
<path d="M7.76664 73.1937L8.38975 73.1607C8.0454 73.9853 7.73384 74.8594 7.73384 75.7829C7.68465 76.7725 7.9962 77.7125 8.38975 78.5866H7.73384C6.74999 76.9704 6.74999 74.7934 7.76664 73.1937ZM11.3413 73.1442H12.112C12.1776 74.4636 12.2432 75.7829 12.276 77.1023C12.276 78.6361 9.81634 79.1308 9.07844 77.8939C8.75049 77.3497 8.91447 76.7065 9.06205 76.1293L9.63596 76.1622C9.65236 76.624 9.50478 77.2177 9.93112 77.5311C10.423 77.8774 11.0298 77.696 11.5217 77.4486C11.4725 76.0138 11.3905 74.579 11.3577 73.1442H11.3413ZM12.9811 73.1442L13.7518 73.1112C13.7846 74.1502 13.7846 75.1892 13.8829 76.2117C13.8829 76.6405 14.3749 76.8714 14.7356 76.7395C15.1128 76.6735 15.1947 76.2447 15.3423 75.9643L15.7687 75.8819C15.9326 76.1787 15.8998 76.7065 16.3098 76.7395C16.5393 76.756 16.7525 76.7395 16.9821 76.723C17.1461 76.4591 17.2608 76.1787 17.4084 75.9314H17.8348C17.9003 76.1787 17.9495 76.4261 18.0479 76.624C18.4579 76.8549 18.9334 76.756 19.3761 76.7395C20.032 76.69 20.6879 76.5251 21.2127 76.1622C20.4628 75.8885 19.6578 75.8036 18.8678 75.9149C18.999 75.6345 18.917 75.1397 19.2941 75.0738C20.4584 74.7769 21.5242 75.5191 22.6556 75.684C22.9016 75.9643 22.5245 76.3766 22.3769 76.657C22.918 76.8054 23.4755 76.789 24.0166 76.723C23.9675 76.1952 23.7707 75.7005 23.5575 75.2387L24.279 74.9583C24.607 75.717 24.9349 76.6075 24.607 77.4321C24.0002 77.828 23.2132 77.795 22.5245 77.696C22.0325 77.63 21.8522 77.1353 21.639 76.7725C20.7029 77.4681 19.5543 77.8123 18.3923 77.7455C18.0643 77.7125 17.802 77.4981 17.5396 77.3332C17.2116 77.5476 16.8509 77.7785 16.441 77.762C16.0802 77.7455 15.7851 77.5146 15.5063 77.3332C14.834 77.9599 13.4238 77.9104 13.1942 76.8879C12.9975 75.651 13.0303 74.3811 12.9811 73.1442ZM33.56 73.1442L34.3307 73.0947C34.3799 74.1502 34.3635 75.2057 34.4783 76.2612C34.5275 76.8879 35.2982 76.756 35.7409 76.789C35.6917 76.3602 35.5769 75.8984 35.8393 75.5191C36.1673 75.1068 36.3312 74.612 36.4952 74.1172C37.1019 74.2492 37.5611 74.645 38.0366 74.9913C38.5285 75.3541 39.0204 75.8159 39.086 76.4426C39.2008 77.1023 38.6761 77.762 38.0366 77.8444C37.4791 78.0094 36.9707 77.663 36.4296 77.63C35.7245 77.6795 34.9702 77.9104 34.2979 77.5971C33.806 77.3497 33.7076 76.7725 33.6748 76.2777C33.6256 75.2387 33.56 74.1997 33.56 73.1442ZM36.61 76.69C37.1183 76.4756 37.3479 75.9808 37.2331 75.4366L36.7412 75.3706C36.1673 75.585 36.3312 76.2942 36.61 76.69ZM38.0038 75.7664L37.5939 77.0528L38.3973 76.9044C38.5285 76.4591 38.2498 76.0798 38.0038 75.7499V75.7664ZM45.4811 73.1442C45.7435 73.1442 45.9894 73.1112 46.2518 73.0947C46.301 74.1502 46.2846 75.2222 46.4158 76.2612C46.4158 76.6075 46.7765 76.8054 47.0881 76.7725C47.7112 76.8054 47.7932 75.9479 48.4327 75.9808L48.5146 76.8054C49.0066 76.9044 49.2197 76.4756 49.4165 76.0963H49.8265L50.056 76.8549C50.2692 76.7889 50.5643 76.8054 50.6955 76.5746C50.6627 76.2447 50.5971 75.9479 50.5315 75.6345L51.2366 75.5026C51.4006 76.2117 51.4662 77.2177 50.7447 77.6465C50.3348 77.9104 49.892 77.6465 49.4985 77.5311C49.2197 77.5641 48.9738 77.696 48.7114 77.762C48.4327 77.7125 48.1867 77.5806 47.9243 77.5146C47.4652 77.6465 46.9733 77.8609 46.4977 77.6795C45.9074 77.5971 45.6451 76.9869 45.6287 76.4426C45.5467 75.3541 45.5139 74.2492 45.4647 73.1442H45.4811ZM53.7127 73.1442L54.385 73.2102C54.8603 74.0188 55.1124 74.9403 55.1153 75.8796C55.1182 76.819 54.8717 77.7421 54.4014 78.5536L53.6963 78.6031C54.1385 77.765 54.3697 76.8307 54.3697 75.8819C54.3697 74.9331 54.1385 73.9988 53.6963 73.1607L53.7127 73.1442ZM70.1267 73.1442L70.8974 73.0947C70.9465 74.1502 70.9301 75.2057 71.0449 76.2612C71.0449 76.69 71.5861 76.8879 71.9304 76.723C72.3567 76.2117 72.4387 75.3212 73.193 75.1727C74.2917 75.0408 74.8492 76.624 74.2916 77.4321C73.9637 77.8939 73.3078 77.7455 72.8651 77.5641C72.4059 77.3002 71.996 77.828 71.5369 77.762C71.1433 77.729 70.8482 77.4651 70.553 77.2672C70.0939 77.5806 70.0611 78.1248 69.8643 78.5866C69.4052 79.2463 68.5197 79.4607 67.749 79.4607C67.1095 79.4607 66.4044 79.1638 66.1748 78.5206C65.8961 77.9104 66.0601 77.2342 66.2732 76.624L66.7324 76.657C66.7652 77.2342 66.5684 77.9764 67.1587 78.3557C67.8146 78.768 68.6837 78.5866 69.3396 78.2238L69.4216 77.8115L68.5033 77.729L68.7329 76.789C69.2248 76.7065 69.9463 76.9539 70.1923 76.4096C70.2906 75.3212 70.1103 74.2327 70.1267 73.1442ZM72.7995 76.5746C73.1438 76.69 73.5046 76.7889 73.8817 76.8384C73.8161 76.5251 73.7997 76.0963 73.439 75.9973C73.0618 75.8984 72.9471 76.3272 72.7995 76.5746ZM79.8504 73.1442L80.6211 73.1277C80.6375 74.1667 80.6539 75.2057 80.7523 76.2612C80.7687 76.69 81.277 76.8549 81.6378 76.756C82.0149 76.69 82.1297 76.2777 82.3265 76.0303H82.802L82.9004 76.8219C83.3595 76.8879 83.5727 76.4921 83.7203 76.1293L84.2614 76.0963L84.327 76.789H84.7861L85.196 75.8489L85.6552 75.8324C85.7044 76.1128 85.7208 76.4096 85.8683 76.657C86.3275 76.8549 86.8194 76.7395 87.2949 76.7065C87.1966 76.1787 86.9998 75.6675 86.803 75.1727L87.5409 75.0078C87.8525 75.7335 88.164 76.5746 87.9016 77.3827C87.1638 77.8774 86.0487 77.9434 85.3436 77.3497C85.1141 77.4981 84.8845 77.6795 84.6057 77.7455C84.3106 77.795 84.0646 77.5806 83.8186 77.4816C83.3267 77.7785 82.7692 77.828 82.3101 77.4651C81.8181 77.7125 81.2114 77.8609 80.6703 77.63C80.1128 77.4321 79.9816 76.7889 79.9488 76.2612C79.8996 75.2222 79.8504 74.1832 79.8504 73.1277V73.1442Z" fill="#005AC2"/>
<path d="M42.0048 74.2328L42.5623 74.1668C42.6443 74.9584 42.5623 75.75 42.759 76.5087C43.1362 76.9704 43.8249 76.7066 44.3332 76.7066C44.2348 76.1788 44.0381 75.6676 43.8413 75.1728L44.5792 75.0079C44.8907 75.7335 45.2023 76.5746 44.9399 77.3827C44.4972 77.7621 43.8577 77.7456 43.3002 77.7621C42.841 77.795 42.4475 77.5312 42.1031 77.2178C41.6276 77.3498 41.0537 77.5312 40.6274 77.1519C40.1682 76.756 40.283 75.9974 40.6438 75.5686C41.0373 75.0574 41.8572 74.9419 41.9884 74.2328M41.0373 76.3932C41.3489 76.4097 41.6604 76.4262 41.972 76.4097V75.4202C41.5456 75.6016 40.9061 75.816 41.0373 76.4097V76.3932ZM25.7383 75.0739L26.4434 74.5461C27.2961 75.0574 28.0012 76.0304 27.788 77.0859C27.788 77.3333 27.5093 77.4157 27.3289 77.5312C26.6566 77.828 25.8695 77.8115 25.1808 77.5807L25.0824 76.6571C25.7547 76.7725 26.4434 76.8055 27.1157 76.6736C26.9682 75.9314 26.3287 75.4862 25.7383 75.0739ZM30.9364 76.855C30.3953 75.7335 31.8219 74.1668 32.9369 74.843C33.3468 75.1068 33.0845 75.5026 32.8549 75.783C32.3958 75.5356 31.7399 75.3872 31.4447 75.9479C31.6087 76.4097 32.1826 76.3437 32.5433 76.5581C33.0353 76.6901 33.1993 77.3003 32.9697 77.7126C32.4778 78.933 30.7232 79.3123 29.6902 78.6032C28.8867 78.0259 29.0343 76.9045 29.3622 76.0964L29.8541 76.1293C29.8541 76.7396 29.6902 77.5642 30.3461 77.9435C31.002 78.2238 31.953 78.1744 32.3794 77.5147C31.8874 77.3003 31.3299 77.2343 30.9364 76.855ZM63.6004 75.2388L64.3055 74.9749C64.6334 75.7006 64.9614 76.5417 64.699 77.3498C64.3711 77.7456 63.7808 77.7126 63.3216 77.7621C62.8789 77.8115 62.4689 77.5971 62.1246 77.3498C61.6983 77.6301 61.1407 77.9105 60.616 77.6796C60.3045 77.5971 60.0257 77.2508 59.7141 77.4487C58.6647 77.894 57.3693 78.1249 56.3198 77.5642C55.5 77.0694 55.4672 75.9809 55.7131 75.1563L56.2215 75.2718C56.2215 75.7995 56.2215 76.4922 56.8118 76.7231C57.73 77.0859 58.7631 76.855 59.665 76.5581L59.8453 75.8985L60.3045 75.816C60.4193 76.2118 60.4848 76.8055 61.0424 76.7725C61.5999 76.8715 61.7475 76.2778 62.0426 75.9479C62.5837 75.783 62.4198 76.6901 62.8789 76.7396C63.2888 76.8385 63.6988 76.7396 64.1087 76.6571C63.9775 76.1623 63.7972 75.7006 63.6168 75.2388H63.6004ZM51.8925 75.4532L52.6304 75.1233C52.9255 75.8655 53.2371 76.6241 53.1879 77.4322C53.1387 78.2238 52.5976 79.0155 51.8105 79.1804C51.4006 79.2793 51.0234 79.0649 50.6627 78.9165L50.6955 78.2733C51.253 78.3228 51.9417 78.4382 52.3024 77.894C52.86 77.1189 52.1385 76.2118 51.8925 75.4532ZM78.1123 75.2883C78.4074 75.2223 78.7026 75.1563 78.9977 75.1233C79.2437 75.8325 79.506 76.6076 79.3257 77.3827C78.9977 78.8505 76.7021 79.2134 75.9314 77.96C75.5378 77.3333 75.7346 76.5746 75.9314 75.915L76.4889 76.0799C76.4725 76.5416 76.3249 77.1189 76.7185 77.4817C77.112 77.7786 77.6695 77.7786 78.1286 77.6466C78.4402 77.5477 78.8009 77.3168 78.7354 76.9375C78.6534 76.3437 78.3582 75.816 78.1123 75.2883ZM49.2689 83.7817H50.2199C50.2855 85.2989 50.2363 86.8162 50.2199 88.3335C49.892 88.3335 49.5312 88.3335 49.2689 88.0861C48.8589 88.284 48.3998 88.5314 47.9407 88.3335C46.7437 87.8057 46.7437 85.7277 47.9571 85.233C48.3834 85.0516 48.8425 85.233 49.2689 85.3319V83.7817ZM48.4818 85.9256C47.7275 86.2225 47.9079 87.8222 48.8426 87.6078C49.564 87.344 49.4165 85.6288 48.4818 85.9092V85.9256ZM56.1067 83.7817H57.0905V85.4804C57.4349 85.3154 57.812 85.0516 58.2056 85.1835C58.6319 85.2495 58.9435 85.6453 58.9927 86.0576C59.1074 86.7997 59.0418 87.5584 59.0582 88.317H58.0744C58.0416 87.5748 58.1728 86.8162 57.976 86.0906C57.9188 86.028 57.8475 85.9803 57.7681 85.9514C57.6886 85.9226 57.6035 85.9134 57.5198 85.9247C57.436 85.9361 57.3563 85.9676 57.2873 86.0165C57.2183 86.0655 57.162 86.1305 57.1233 86.206C57.0413 86.9152 57.1069 87.6078 57.0905 88.317H56.1067V83.7817ZM60.9276 83.9136C61.2883 83.6167 61.9114 84.0785 61.6819 84.4908C61.5671 84.9196 60.8456 84.9196 60.7308 84.4908C60.6324 84.2599 60.7308 84.0126 60.9276 83.9136ZM66.1584 83.8641C66.6831 83.5673 67.2079 84.4414 66.6503 84.7382C66.0928 85.134 65.5025 84.1445 66.1584 83.8641ZM24.7217 85.266C25.1972 85.0351 25.7056 85.167 26.1975 85.2989L26.0827 85.9256C25.7383 85.8762 25.394 85.8267 25.0333 85.8102C24.9513 86.3544 25.6236 86.3874 25.9351 86.6513C26.509 86.9482 26.427 87.8387 25.9351 88.1521C25.3612 88.5479 24.6233 88.4159 24.0166 88.2015L24.1642 87.5419C24.5905 87.6408 25.0169 87.7068 25.4596 87.6408C25.3284 86.9646 24.3773 87.0636 24.1478 86.4534C23.951 85.9916 24.2626 85.4309 24.7217 85.266ZM27.9028 85.3484C28.6571 85.1175 29.805 84.9031 30.2969 85.7607C30.592 86.5853 30.3789 87.4759 30.4609 88.3335C29.8869 88.2675 29.2966 88.2016 28.7227 88.383C27.9684 88.5479 27.3617 87.6243 27.7225 86.9646C28.0504 86.2555 28.9523 86.3709 29.5426 86.0411C29.0835 85.6618 28.4931 85.8597 27.9684 85.9586L27.8864 85.3484M28.6571 87.0966C28.5423 87.2945 28.6735 87.5254 28.6899 87.7398C28.9359 87.6738 29.1982 87.6903 29.395 87.5254C29.5098 87.311 29.4934 87.0471 29.5426 86.8162C29.231 86.8657 28.8867 86.8492 28.6571 87.0966ZM32.035 85.1835H32.8057C32.8057 85.2824 32.8549 85.4804 32.8877 85.5793C33.1665 85.3814 33.4452 85.1505 33.806 85.134C34.1667 85.134 34.4619 85.3814 34.7242 85.5628C35.0522 85.3484 35.3801 85.101 35.7737 85.1505C36.2656 85.1505 36.6427 85.5628 36.7083 86.0411C36.8231 86.7832 36.7411 87.5584 36.7575 88.317H35.8065C35.8065 87.6078 35.8885 86.8987 35.7573 86.206C35.6753 85.7607 35.0522 85.8102 34.921 86.206C34.8226 86.8822 34.8882 87.5913 34.8882 88.3005L33.9371 88.317C33.9043 87.6243 33.9863 86.9317 33.8879 86.239C33.8388 85.7607 33.1337 85.7937 33.0353 86.2225C32.9205 86.9152 33.0025 87.6243 32.9861 88.317H32.035V85.1835ZM38.3973 85.3649C39.168 85.134 40.3158 84.8866 40.8077 85.7277C41.1357 86.5523 40.9061 87.4759 41.0045 88.3335C40.4634 88.284 39.9059 88.1851 39.3647 88.35C38.6105 88.6139 37.889 87.7398 38.2169 87.0306C38.5121 86.272 39.4467 86.3215 40.0862 86.1235C39.6927 85.6288 39.0532 85.8597 38.5449 85.9586L38.3809 85.3649M39.2008 87.0306C39.1516 87.245 39.1516 87.4594 39.168 87.6903C39.4631 87.6903 39.8239 87.7398 39.9879 87.4429C40.0207 87.2285 40.0534 87.0141 40.0534 86.7832C39.7747 86.8492 39.4631 86.8987 39.2008 87.0306ZM42.6279 85.1505C42.9722 85.167 43.3166 85.2825 43.6445 85.3814C44.202 85.134 44.9891 84.9856 45.3499 85.6123C45.7434 86.4369 45.5138 87.4264 45.563 88.317H44.5792C44.5792 87.6243 44.6448 86.9317 44.5464 86.239C44.4808 85.7772 43.7757 85.7772 43.6609 86.206C43.5461 86.8987 43.6281 87.6078 43.6117 88.317H42.6279V85.1505ZM52.45 88.1851C51.3514 87.5749 51.5318 85.6453 52.696 85.2165C53.3027 84.9691 54.0898 85.134 54.4341 85.7112C54.6801 86.1235 54.6801 86.6183 54.6473 87.0801C53.9586 87.0801 53.2699 87.0636 52.5648 87.1131C52.8928 87.8552 53.7618 87.6573 54.3849 87.6078L54.4669 88.2675C53.811 88.3665 53.0731 88.5479 52.45 88.1851ZM52.5648 86.3874C52.9747 86.4204 53.3847 86.4204 53.811 86.4039C53.7126 86.1071 53.5651 85.6618 53.1551 85.7607C52.8108 85.7607 52.7288 86.1565 52.5648 86.4039V86.3874ZM60.698 85.1835H61.6819V88.317H60.698V85.1835ZM65.8797 85.1835H66.8307V88.317H65.8797V85.1835ZM68.5033 85.1835H69.2412L69.3723 85.6288C69.6511 85.3319 69.9954 85.134 70.4054 85.101V85.9421C70.0938 86.0411 69.6511 86.0081 69.5199 86.3709C69.4215 87.0141 69.4871 87.6573 69.4871 88.3005L68.5033 88.317C68.4705 87.278 68.4705 86.2225 68.5033 85.1835ZM63.7152 87.2285C64.1251 87.0966 64.535 87.5584 64.4203 87.9377C64.3547 88.383 63.6988 88.5974 63.4364 88.218C63.1249 87.9212 63.2724 87.2945 63.7316 87.2285H63.7152Z" fill="#005AC2"/>
<circle cx="58.5996" cy="74.5" r="0.5" fill="#005AC2"/>
<circle cx="57.5" cy="74.5" r="0.5" fill="#005AC2"/>
<circle cx="24.5" cy="79.1001" r="0.5" fill="#005AC2"/>
<circle cx="23.4004" cy="79.1001" r="0.5" fill="#005AC2"/>
<circle cx="18.0996" cy="79.1001" r="0.5" fill="#005AC2"/>
<circle cx="17" cy="79.1001" r="0.5" fill="#005AC2"/>
<circle cx="16.0996" cy="74.5" r="0.5" fill="#005AC2"/>
<circle cx="15" cy="74.5" r="0.5" fill="#005AC2"/>
<circle cx="64.1992" cy="74" r="0.5" fill="#005AC2"/>
<circle cx="63.0996" cy="74" r="0.5" fill="#005AC2"/>
<circle cx="63.5996" cy="72.8999" r="0.5" fill="#005AC2"/>
<circle cx="61.5" cy="78.6001" r="0.5" fill="#005AC2"/>
<circle cx="43.9004" cy="73.8999" r="0.5" fill="#005AC2"/>
<circle cx="21.0996" cy="79.1001" r="0.5" fill="#005AC2"/>
<circle cx="77.3008" cy="74.2002" r="0.5" fill="#005AC2"/>
<circle cx="86.9004" cy="73.8999" r="0.5" fill="#005AC2"/>
<circle cx="84.3008" cy="74.8003" r="0.5" fill="#005AC2"/>
<circle cx="83.2012" cy="74.8003" r="0.5" fill="#005AC2"/>
<circle cx="83.7012" cy="73.7002" r="0.5" fill="#005AC2"/>
</svg>
