<svg width="1536" height="1057" viewBox="0 0 1536 1057" fill="none" xmlns="http://www.w3.org/2000/svg">
<mask id="mask0_30_879" style="mask-type:alpha" maskUnits="userSpaceOnUse" x="0" y="0" width="1537" height="1057">
<line x1="0.5" y1="40" x2="0.5" y2="1040" stroke="#E5E7EC"/>
<line x1="96.5" y1="40" x2="96.5" y2="1040" stroke="#E5E7EC"/>
<line x1="192.5" y1="40" x2="192.5" y2="1040" stroke="#E5E7EC"/>
<line x1="288.5" y1="40" x2="288.5" y2="1040" stroke="#E5E7EC"/>
<line x1="384.5" y1="40" x2="384.5" y2="1040" stroke="#E5E7EC"/>
<line x1="480.5" y1="40" x2="480.5" y2="1040" stroke="#E5E7EC"/>
<line x1="576.5" y1="40" x2="576.5" y2="1040" stroke="#E5E7EC"/>
<line x1="672.5" y1="40" x2="672.5" y2="1040" stroke="#E5E7EC"/>
<line x1="768.5" y1="40" x2="768.5" y2="1040" stroke="#E5E7EC"/>
<line x1="864.5" y1="40" x2="864.5" y2="1040" stroke="#E5E7EC"/>
<line x1="960.5" y1="40" x2="960.5" y2="1040" stroke="#E5E7EC"/>
<line x1="1056.5" y1="40" x2="1056.5" y2="1040" stroke="#E5E7EC"/>
<line x1="1152.5" y1="40" x2="1152.5" y2="1040" stroke="#E5E7EC"/>
<line x1="1248.5" y1="40" x2="1248.5" y2="1040" stroke="#E5E7EC"/>
<line x1="1344.5" y1="40" x2="1344.5" y2="1040" stroke="#E5E7EC"/>
<line x1="1440.5" y1="40" x2="1440.5" y2="1040" stroke="#E5E7EC"/>
<line x1="11" y1="1056.5" x2="1505" y2="1056.5" stroke="#E5E7EC"/>
<line x1="11" y1="960.5" x2="1505" y2="960.5" stroke="#E5E7EC"/>
<line x1="11" y1="864.5" x2="1505" y2="864.5" stroke="#E5E7EC"/>
<line x1="11" y1="768.5" x2="1505" y2="768.5" stroke="#E5E7EC"/>
<line x1="11" y1="672.5" x2="1505" y2="672.5" stroke="#E5E7EC"/>
<line x1="11" y1="576.5" x2="1505" y2="576.5" stroke="#E5E7EC"/>
<line x1="11" y1="480.5" x2="1505" y2="480.5" stroke="#E5E7EC"/>
<line x1="11" y1="384.5" x2="1505" y2="384.5" stroke="#E5E7EC"/>
<line x1="11" y1="288.5" x2="1505" y2="288.5" stroke="#E5E7EC"/>
<line x1="11" y1="192.5" x2="1505" y2="192.5" stroke="#E5E7EC"/>
<line x1="11" y1="96.5" x2="1505" y2="96.5" stroke="#E5E7EC"/>
<line x1="11" y1="0.5" x2="1505" y2="0.5" stroke="#E5E7EC"/>
</mask>
<g mask="url(#mask0_30_879)">
<circle cx="736.5" cy="474.5" r="642.5" fill="url(#paint0_radial_30_879)"/>
</g>
<defs>
<radialGradient id="paint0_radial_30_879" cx="0" cy="0" r="1" gradientUnits="userSpaceOnUse" gradientTransform="translate(736.5 474.5) rotate(90) scale(642.5)">
<stop offset="0.432292" stop-color="#E8E8EA"/>
<stop offset="0.583333" stop-color="#E8E8EA" stop-opacity="0.5"/>
<stop offset="1" stop-color="#E8E8EA" stop-opacity="0"/>
</radialGradient>
</defs>
</svg>
