<svg width="19" height="19" viewBox="0 0 19 19" fill="none" xmlns="http://www.w3.org/2000/svg">
<path fill-rule="evenodd" clip-rule="evenodd" d="M15.903 2.633C14.208 0.936 11.954 0.001 9.553 0C4.605 0 0.577 4.027 0.575 8.977C0.575 10.559 0.988 12.103 1.773 13.465L0.5 18.116L5.259 16.867C6.571 17.582 8.047 17.959 9.549 17.96H9.553C14.5 17.96 18.528 13.933 18.53 8.983C18.53 6.585 17.598 4.33 15.903 2.633ZM9.553 16.445H9.55C8.211 16.444 6.898 16.085 5.752 15.404L5.48 15.242L2.656 15.983L3.409 13.23L3.232 12.948C2.485 11.76 2.091 10.387 2.091 8.977C2.093 4.863 5.44 1.516 9.556 1.516C11.549 1.517 13.422 2.294 14.831 3.704C16.239 5.115 17.015 6.989 17.014 8.983C17.012 13.097 13.665 16.445 9.553 16.445ZM13.646 10.856C13.421 10.743 12.319 10.201 12.113 10.126C11.908 10.051 11.759 10.014 11.609 10.238C11.459 10.462 11.029 10.967 10.898 11.117C10.767 11.267 10.636 11.285 10.412 11.173C10.188 11.061 9.465 10.824 8.608 10.06C7.941 9.465 7.491 8.731 7.36 8.506C7.229 8.281 7.346 8.16 7.459 8.048C7.56 7.948 7.683 7.786 7.795 7.655C7.907 7.524 7.944 7.431 8.019 7.281C8.094 7.131 8.057 7 8 6.888C7.944 6.775 7.495 5.671 7.308 5.222C7.127 4.787 6.942 4.845 6.804 4.839C6.674 4.833 6.524 4.831 6.375 4.831C6.225 4.831 5.982 4.887 5.776 5.111C5.57 5.336 4.991 5.878 4.991 6.982C4.991 8.086 5.795 9.153 5.907 9.303C6.019 9.453 7.489 11.718 9.739 12.69C10.275 12.921 10.693 13.059 11.018 13.163C11.555 13.334 12.044 13.309 12.431 13.252C12.862 13.188 13.758 12.71 13.945 12.186C14.132 11.662 14.132 11.213 14.076 11.119C14.02 11.025 13.869 10.968 13.646 10.856Z" fill="white"/>
</svg>
