<svg width="96" height="96" viewBox="0 0 96 96" fill="none" xmlns="http://www.w3.org/2000/svg">
<mask id="mask0_107_3569" style="mask-type:luminance" maskUnits="userSpaceOnUse" x="14" y="0" width="68" height="96">
<path d="M75.2 0H20.8C17.0445 0 14 3.03393 14 6.77647V89.2235C14 92.9661 17.0445 96 20.8 96H75.2C78.9555 96 82 92.9661 82 89.2235V6.77647C82 3.03393 78.9555 0 75.2 0Z" fill="white"/>
</mask>
<g mask="url(#mask0_107_3569)">
<path d="M45.4574 14.0242C45.7046 13.4252 46.1284 12.9124 46.6743 12.5517C47.2201 12.1911 47.8632 11.9989 48.521 11.9999H69.698C72.0318 11.9999 73.6284 14.3009 72.7616 16.4159L56.5441 55.9756C56.2968 56.5746 55.8731 57.0874 55.3272 57.4481C54.7813 57.8088 54.1383 58.0009 53.4805 57.9999H32.3035C29.9697 57.9999 28.3731 55.699 29.2399 53.5839L45.4574 14.0257V14.0242Z" fill="#005AC2"/>
<path d="M36.8566 39.9992C38.7071 40.0182 40.5431 39.6702 42.2582 38.9752C43.9734 38.2802 45.5338 37.2521 46.8491 35.9503C48.1644 34.6484 49.2086 33.0987 49.9212 31.3908C50.6338 29.6828 51.0007 27.8506 51.0007 25.9999C51.0007 24.1493 50.6338 22.317 49.9212 20.6091C49.2086 18.9011 48.1644 17.3514 46.8491 16.0496C45.5338 14.7477 43.9734 13.7196 42.2582 13.0246C40.5431 12.3296 38.7071 11.9816 36.8566 12.0007C33.1687 12.0386 29.6448 13.5303 27.0504 16.1515C24.456 18.7728 23.0007 22.3119 23.0007 25.9999C23.0007 29.688 24.456 33.2271 27.0504 35.8483C29.6448 38.4695 33.1687 39.9612 36.8566 39.9992Z" fill="#92C4FF"/>
<path d="M51.0007 26.0329C51.0009 27.9917 50.5742 29.9286 49.7484 31.7179C48.9225 33.5071 47.7159 35.1087 46.207 36.4185C44.698 37.7283 42.9205 38.7171 40.9899 39.3206C39.0593 39.9241 37.0187 40.1288 35.0007 39.9215L45.403 14.9999C47.1472 16.3043 48.5587 17.9771 49.529 19.8899C50.4994 21.8026 51.0028 23.9031 51.0007 26.0329Z" fill="url(#paint0_linear_107_3569)"/>
<path d="M26.6491 71.0242C26.3431 71.0242 26.0926 70.9632 25.8943 70.8412C25.7026 70.7164 25.5542 70.5358 25.4693 70.3239C25.3736 70.0774 25.3274 69.8146 25.3333 69.5503V66.6477H26.1527V69.5503C26.1527 69.7163 26.1606 69.8338 26.1787 69.9038C26.1874 69.9363 26.2036 69.9663 26.226 69.9914C26.2485 70.0165 26.2765 70.036 26.3079 70.0484C26.3759 70.0709 26.4893 70.0811 26.6491 70.0811H26.8814L26.9199 70.5668L26.8814 71.0242H26.6491Z" fill="#005AC2"/>
<path d="M26.8088 70.08H27.4344C27.6066 70.08 27.7313 70.0484 27.8084 69.9829C27.8866 69.9128 27.9217 69.8146 27.9126 69.6881C27.8977 69.5254 27.8761 69.3634 27.848 69.2024C27.814 68.9935 27.7789 68.7925 27.7449 68.6005L28.5122 68.4039C28.5688 68.6219 28.6176 68.8602 28.6595 69.1177C28.7037 69.3752 28.7275 69.5876 28.7309 69.7536C28.7352 69.9666 28.6886 70.1776 28.5949 70.3691C28.5047 70.5659 28.359 70.7322 28.1756 70.848C27.9719 70.9707 27.7369 71.0319 27.499 71.0242H26.8088V70.08ZM26.6614 71.817H27.5704V72.6686H26.6592V71.817H26.6614ZM35.1331 71.0242C34.9759 71.0261 34.8222 70.9778 34.6945 70.8864C34.5591 70.7748 34.4585 70.6271 34.4044 70.4606C34.3294 70.2326 34.2945 69.9934 34.3012 69.7536H34.7455C34.7455 69.8801 34.7784 69.9682 34.843 70.0156C34.911 70.0597 35.0084 70.0811 35.1331 70.0811H35.2691L35.3258 70.5724L35.2691 71.0242H35.1331ZM31.7082 69.3933C31.605 69.6128 31.5208 69.8406 31.4566 70.0743C31.402 70.282 31.3739 70.4956 31.3727 70.7102C31.3727 70.9361 31.4044 71.1247 31.469 71.2738C31.537 71.4262 31.6447 71.5392 31.792 71.6137C31.9416 71.6928 32.1434 71.7323 32.3984 71.7323H32.9537C33.228 71.7323 33.4342 71.7075 33.5725 71.66C33.6343 71.6417 33.6911 71.6099 33.739 71.5669C33.7868 71.524 33.8244 71.4709 33.849 71.4116C33.9012 71.293 33.9272 71.1179 33.9272 70.8864V68.8309H34.7466V70.8864C34.7466 71.4375 34.5993 71.8712 34.308 72.1909C34.019 72.5139 33.568 72.6754 32.9526 72.6754H32.3972C32.0119 72.6754 31.6798 72.5873 31.4044 72.4133C31.1311 72.2407 30.9137 71.9928 30.7788 71.6996C30.6341 71.3899 30.5613 71.0518 30.5658 70.7102C30.5658 70.4437 30.6111 70.1602 30.7018 69.8586C30.7924 69.5571 30.899 69.2792 31.0236 69.0262L31.7082 69.3933ZM32.3462 68.2334H33.2563V69.085H32.3462V68.2334Z" fill="#005AC2"/>
<path d="M35.2068 70.08H35.3745C35.4435 70.084 35.5118 70.0636 35.5672 70.0224C35.6224 69.9644 35.6587 69.8912 35.6715 69.8123L35.8392 69.1832C35.9333 68.8038 36.0931 68.5135 36.3163 68.3125C36.5396 68.1114 36.8082 68.0109 37.1233 68.0109C37.3614 68.0089 37.594 68.0825 37.7874 68.221C37.9846 68.3565 38.1399 68.5462 38.2521 68.7902C38.3631 69.0308 38.4198 69.3018 38.4198 69.6034C38.4198 69.9614 38.3609 70.2562 38.2453 70.4866C38.151 70.6935 37.9987 70.8689 37.8067 70.9914C37.6427 71.0887 37.4557 71.1409 37.2649 71.1428C37.1063 71.1428 36.9363 71.1078 36.7549 71.0377C36.5736 70.9677 36.2948 70.8412 35.9163 70.6571L35.7485 70.5724L36.1101 69.7671L36.1939 69.8055C36.5419 69.9761 36.7855 70.0902 36.9227 70.1466C37.0609 70.1986 37.1856 70.2257 37.2967 70.2257C37.3489 70.2273 37.4005 70.2147 37.446 70.1892C37.4916 70.1638 37.5293 70.1264 37.5551 70.0811C37.6197 69.9806 37.6514 69.8236 37.6514 69.609C37.6514 69.391 37.6061 69.2228 37.5154 69.1053C37.4758 69.0517 37.4252 69.0071 37.3669 68.9746C37.3086 68.9421 37.244 68.9224 37.1774 68.9169C37.1109 68.9113 37.0439 68.92 36.981 68.9424C36.9181 68.9647 36.8607 69.0003 36.8127 69.0466C36.7068 69.1599 36.6352 69.3009 36.6065 69.4532L36.4195 70.1726C36.3792 70.331 36.3054 70.479 36.203 70.6066C36.1005 70.7342 35.9718 70.8385 35.8256 70.9124C35.6909 70.9854 35.5403 71.0241 35.387 71.0253H35.2068V70.08ZM38.9808 70.5397L38.9287 71.0253H38.8323C38.6046 71.0334 38.3797 70.9736 38.1863 70.8536C38.0123 70.7325 37.8798 70.561 37.8067 70.3623C37.7196 70.1209 37.6781 69.8655 37.6843 69.609L38.4198 69.6034C38.4198 69.7434 38.4311 69.8451 38.4515 69.9106C38.4725 69.9708 38.5165 70.0203 38.5739 70.0484C38.6306 70.071 38.7156 70.0811 38.8323 70.0811H38.9287L38.9808 70.5397Z" fill="#005AC2"/>
<path d="M38.8608 70.08H40.2095L40.2605 70.5397L40.2095 71.0253H38.8608V70.08Z" fill="#005AC2"/>
<path d="M40.1392 70.08H41.4878L41.54 70.5397L41.4878 71.0253H40.1392V70.08Z" fill="#005AC2"/>
<path d="M41.4186 70.08H42.7673L42.8183 70.5397L42.7661 71.0253H41.4175V70.0811L41.4186 70.08Z" fill="#005AC2"/>
<path d="M42.6913 70.08H43.4064C43.6002 70.08 43.7385 70.0484 43.8201 69.9829C43.9017 69.9128 43.938 69.8146 43.9289 69.6881C43.9152 69.5234 43.894 69.3595 43.8654 69.1968C43.8359 68.9971 43.8012 68.7983 43.7612 68.6005L44.5352 68.4039C44.5874 68.6219 44.635 68.8602 44.678 69.1177C44.7245 69.3752 44.7483 69.5876 44.7483 69.7536C44.7528 69.9716 44.7075 70.1794 44.6123 70.3748C44.5182 70.5679 44.3743 70.7249 44.1816 70.848C43.9663 70.9726 43.7199 71.0337 43.471 71.0242H42.6902V70.0811L42.6913 70.08ZM42.4714 71.8306H43.3543V72.6099H42.4714V71.8306ZM43.3033 71.8306H44.1805V72.6099H43.3033V71.8306ZM45.5756 66.6488H46.395V71.0242H45.5756V66.6488ZM49.6726 71.0242C49.3712 71.0242 49.1139 70.9474 48.8986 70.7949C48.688 70.6478 48.5281 70.4395 48.4407 70.1986C48.3544 69.948 48.3364 69.6791 48.3886 69.4193C48.4452 69.1008 48.5042 68.806 48.5699 68.5349L49.3236 68.7247L49.285 68.902C49.217 69.2115 49.174 69.4328 49.1558 69.5638C49.1448 69.6297 49.1482 69.6972 49.1661 69.7616C49.1839 69.8259 49.2156 69.8857 49.259 69.9366C49.3496 70.0326 49.4879 70.0811 49.6726 70.0811H52.4788C52.6601 70.0811 52.7848 70.0574 52.8528 70.0088C52.9264 69.9569 52.9627 69.8688 52.9627 69.7468V68.8297H53.7878V69.7796C53.7878 69.8925 53.8161 69.9716 53.8716 70.0156C53.9317 70.0597 54.0269 70.0811 54.155 70.0811H54.3499L54.3884 70.5668L54.3488 71.0242H54.1561C54.0224 71.0242 53.883 70.9982 53.7368 70.9451C53.5907 70.8887 53.4585 70.8017 53.3492 70.6899C53.2463 70.8014 53.1181 70.8867 52.9752 70.9383C52.8163 70.9968 52.6481 71.0258 52.4788 71.0242H49.6726ZM50.3368 67.8799H51.2208V68.6592H50.3379L50.3368 67.8799ZM51.1686 67.8799H52.047V68.6592H51.1686V67.8799Z" fill="#005AC2"/>
<path d="M54.2831 70.08H55.6318L55.6828 70.5397L55.6307 71.0253H54.282V70.0811L54.2831 70.08Z" fill="#005AC2"/>
<path d="M55.5615 70.08H56.9102L56.9612 70.5397L56.9102 71.0253H55.5615V70.08Z" fill="#005AC2"/>
<path d="M56.8149 70.08H57.589C57.8848 70.08 58.167 70.0551 58.4333 70.0021C58.7053 69.9456 58.9626 69.8665 59.2074 69.766C59.4533 69.6666 59.7197 69.5334 60.0075 69.3673L60.1628 69.2759L60.1945 69.5898L59.9815 69.5051C59.5508 69.3515 59.1757 69.2273 58.8527 69.1313C58.5353 69.0308 58.3325 68.9811 58.2463 68.9811C58.1629 68.9784 58.0817 69.0089 58.0208 69.0658C57.9456 69.1429 57.8904 69.2371 57.8599 69.3402L57.1368 69.1053C57.2354 68.7642 57.3816 68.5045 57.5754 68.326C57.7551 68.1524 57.996 68.0559 58.2463 68.0572C58.405 68.0572 58.6543 68.1159 58.9943 68.2334C59.3343 68.3463 59.7514 68.509 60.2467 68.7191C60.4053 68.78 60.5187 68.8252 60.5878 68.8557L60.7102 69.8835L60.4654 70.0416C60.1175 70.2607 59.8013 70.4369 59.5168 70.5724C59.238 70.7079 58.9365 70.8175 58.6147 70.8999C58.2962 70.9824 57.9539 71.0242 57.589 71.0242H56.8149V70.08ZM57.8531 66.6353H58.762V67.4869H57.8531V66.6353ZM61.533 66.6488H62.3524V71.0242H61.533V66.6488ZM65.0146 67.9974C65.1472 68.2029 65.2639 68.387 65.3625 68.5485C65.4657 68.7055 65.5779 68.8817 65.698 69.0793C65.8533 69.3323 65.9349 69.5876 65.9428 69.8451C65.9573 70.0665 65.9032 70.2871 65.7879 70.4769C65.6725 70.6668 65.5015 70.8168 65.2979 70.9067C65.1132 70.9858 64.8899 71.0242 64.627 71.0242H64.2847C64.0139 71.0242 63.7747 70.9801 63.5696 70.8932C63.394 70.8209 63.2307 70.7218 63.0857 70.5995L63.4721 69.8451L63.4914 69.8643C63.5911 69.9174 63.7022 69.967 63.8269 70.0156C63.9561 70.0597 64.1102 70.0811 64.2915 70.0811H64.6077C64.7494 70.0811 64.8571 70.0698 64.9307 70.0472C64.997 70.0329 65.0562 69.9962 65.0985 69.9433C65.1132 69.9201 65.123 69.894 65.1273 69.8668C65.1316 69.8396 65.1303 69.8119 65.1234 69.7852C65.1003 69.7015 65.0636 69.6221 65.0146 69.5503C64.6902 69.0496 64.3611 68.5518 64.0275 68.0572L64.7177 67.5332L65.0146 67.9974ZM67.9001 68.8297V70.6774C67.9001 71.0919 67.8264 71.45 67.6802 71.7515C67.5385 72.0531 67.3289 72.2823 67.0478 72.4393C66.7735 72.5974 66.4358 72.6754 66.0357 72.6754H65.6289V71.7323H66.0357C66.3066 71.7323 66.5151 71.6984 66.6613 71.6341C66.7339 71.6057 66.7996 71.5624 66.8541 71.5069C66.9086 71.4514 66.9507 71.3851 66.9775 71.3122C67.0421 71.1642 67.0739 70.9519 67.0739 70.6774V68.8297H67.9001ZM67.9001 69.7796C67.9001 69.8925 67.9284 69.9716 67.9839 70.0156C68.044 70.0597 68.1381 70.0811 68.2673 70.0811H68.3897L68.4293 70.5589L68.3897 71.0242H68.2673C68.1558 71.025 68.0457 71.0003 67.9454 70.9519C67.8461 70.8991 67.7637 70.8197 67.7074 70.7226C67.641 70.5924 67.6013 70.4504 67.5907 70.3047L67.9001 69.7796Z" fill="#005AC2"/>
<path d="M68.6084 70.08H69.3179C69.5162 70.08 69.6556 70.0484 69.7372 69.9829C69.8188 69.9129 69.8562 69.8146 69.8472 69.6881C69.8331 69.5234 69.8116 69.3595 69.7826 69.1968C69.7486 68.9913 69.7146 68.7925 69.6794 68.6005L70.4467 68.404C70.5034 68.6219 70.5521 68.8602 70.5952 69.1177C70.6382 69.3753 70.662 69.5876 70.6666 69.7536C70.6711 69.9716 70.6258 70.1794 70.5306 70.3748C70.4365 70.5679 70.2926 70.7249 70.0988 70.848C69.8833 70.9713 69.6376 71.0323 69.3893 71.0242H68.6084V70.08ZM69.1638 73.2514V72.5896H69.9367V73.2514H69.1638ZM68.6855 72.3275V71.5482H69.5695V72.3275H68.6855ZM69.531 72.3275V71.5482H70.4082V72.3275H69.531ZM68.3376 70.08H68.6538L68.6923 70.5465L68.6538 71.0242H68.3364V70.0811L68.3376 70.08Z" fill="#005AC2"/>
<path fill-rule="evenodd" clip-rule="evenodd" d="M35.4075 75.6706C35.9628 75.6706 36.415 76.1133 36.415 76.6588V81.6C36.415 82.1455 36.8661 82.5882 37.4225 82.5882H40.444C40.5754 82.5894 40.7057 82.5648 40.8275 82.5158C40.9493 82.4667 41.0602 82.3942 41.1539 82.3025C41.2476 82.2107 41.3222 82.1014 41.3734 81.9809C41.4247 81.8603 41.4516 81.7309 41.4527 81.6V80.6118C41.4527 80.0662 41.9026 79.6235 42.4591 79.6235C43.0155 79.6235 43.4666 80.0662 43.4666 80.6118V81.6C43.4666 83.2376 42.1134 84.5647 40.444 84.5647H37.4225C35.7531 84.5647 34.3999 83.2376 34.3999 81.6V76.6588C34.3999 76.1133 34.851 75.6706 35.4075 75.6706ZM37.4225 86.5412C37.4225 85.9957 37.8736 85.5529 38.4301 85.5529H41.4515C42.008 85.5529 42.4602 85.9957 42.4602 86.5412V87.5294C42.4591 87.6603 42.4322 87.7897 42.381 87.9103C42.3297 88.0308 42.2551 88.1401 42.1614 88.2319C42.0677 88.3237 41.9568 88.3961 41.835 88.4452C41.7132 88.4942 41.5829 88.5188 41.4515 88.5176C41.3202 88.5187 41.1901 88.4939 41.0684 88.4448C40.9467 88.3957 40.8359 88.3232 40.7424 88.2315C40.6488 88.1397 40.5743 88.0305 40.5231 87.91C40.4719 87.7895 40.445 87.6602 40.444 87.5294H38.4301C38.2987 87.5306 38.1684 87.506 38.0466 87.4569C37.9248 87.4079 37.8138 87.3354 37.7202 87.2436C37.6265 87.1519 37.5519 87.0426 37.5006 86.922C37.4493 86.8015 37.4236 86.6721 37.4225 86.5412ZM32.3849 75.6706C32.9413 75.6706 33.3935 76.1133 33.3935 76.6588V83.5618C33.3935 85.7461 31.5881 87.5294 29.3623 87.5294C27.1375 87.5294 25.3333 85.7449 25.3333 83.5618V81.6C25.3333 81.0545 25.7843 80.6118 26.3408 80.6118C26.8961 80.6118 27.3483 81.0545 27.3483 81.6V83.5618C27.3483 84.6539 28.2493 85.5529 29.3623 85.5529C30.4752 85.5529 31.3773 84.6539 31.3773 83.5618V76.6588C31.3773 76.1133 31.8273 75.6706 32.3849 75.6706ZM69.659 78.6353C69.8579 78.6356 70.0526 78.5779 70.2189 78.4693C70.343 78.3899 70.4476 78.2837 70.5247 78.1585C70.6018 78.0332 70.6495 77.8922 70.6642 77.746C70.6789 77.5998 70.6602 77.4522 70.6096 77.3142C70.559 77.1762 70.4778 77.0514 70.3719 76.9491C70.2303 76.8096 70.0506 76.7149 69.8553 76.6768C69.66 76.6386 69.4577 76.6587 69.2737 76.7345C69.0903 76.8086 68.933 76.9352 68.8215 77.0982C68.6926 77.2877 68.6344 77.5163 68.6572 77.7441C68.68 77.9719 68.7822 78.1846 68.9462 78.345C69.1367 78.5315 69.392 78.6357 69.659 78.6353ZM48.5043 78.6353C48.7028 78.6354 48.897 78.5777 49.063 78.4693C49.1873 78.3901 49.292 78.2839 49.3692 78.1587C49.4464 78.0334 49.4942 77.8924 49.5089 77.7461C49.5237 77.5998 49.5049 77.4521 49.4542 77.3141C49.4035 77.1761 49.322 77.0513 49.216 76.9491C49.0744 76.8096 48.8947 76.7149 48.6994 76.6768C48.504 76.6386 48.3017 76.6587 48.1178 76.7345C47.9344 76.8087 47.7771 76.9352 47.6656 77.0982C47.5365 77.2877 47.4784 77.5164 47.5014 77.7443C47.5244 77.9723 47.6271 78.1849 47.7914 78.345C47.9816 78.5312 48.2376 78.6354 48.5043 78.6353ZM69.659 79.6235C69.393 79.6232 69.1374 79.7271 68.9473 79.9126C68.8541 80.0038 68.78 80.1126 68.7294 80.2327C68.6788 80.3527 68.6527 80.4816 68.6527 80.6118V84.1942C68.6527 84.7138 68.5031 85.0594 68.3342 85.257C68.2498 85.356 68.1435 85.4341 68.0238 85.4855C67.9041 85.5368 67.7741 85.5599 67.644 85.5529C67.3779 85.5527 67.1223 85.6565 66.9323 85.8421C66.8391 85.9333 66.7651 86.0421 66.7146 86.1621C66.6641 86.2822 66.6381 86.411 66.6381 86.5412C66.6381 86.6713 66.6641 86.8002 66.7146 86.9202C66.7651 87.0402 66.8391 87.149 66.9323 87.2403C67.1223 87.4259 67.3779 87.5297 67.644 87.5294C68.069 87.535 68.4894 87.4492 68.8759 87.2753C69.2612 87.1025 69.6035 86.8472 69.8767 86.5276C70.4127 85.9019 70.6666 85.0741 70.6666 84.1942V80.6118C70.6665 80.4816 70.6404 80.3527 70.5898 80.2327C70.5392 80.1126 70.4652 80.0038 70.3719 79.9126C70.1816 79.7268 69.9255 79.6229 69.659 79.6235ZM66.6365 80.6118C66.6364 80.4816 66.6103 80.3527 66.5597 80.2327C66.5091 80.1126 66.435 80.0038 66.3418 79.9126C66.1518 79.7263 65.896 79.6219 65.6295 79.6219C65.363 79.6219 65.1071 79.7263 64.9172 79.9126C64.8239 80.0038 64.7499 80.1126 64.6993 80.2327C64.6487 80.3527 64.6226 80.4816 64.6225 80.6118V84.1942C64.6225 84.7138 64.4729 85.0594 64.3041 85.257C64.2198 85.3559 64.1138 85.434 63.9943 85.4853C63.8747 85.5366 63.7449 85.5598 63.615 85.5529C63.3485 85.5524 63.0925 85.6562 62.9021 85.8421C62.809 85.9333 62.735 86.0421 62.6845 86.1621C62.634 86.2822 62.608 86.411 62.608 86.5412C62.608 86.6713 62.634 86.8002 62.6845 86.9202C62.735 87.0402 62.809 87.149 62.9021 87.2403C63.0925 87.4261 63.3485 87.53 63.615 87.5294C64.0389 87.535 64.4593 87.4492 64.8458 87.2753C65.2311 87.1025 65.5745 86.8472 65.8465 86.5276C66.3826 85.9019 66.6365 85.0741 66.6365 84.1942V80.6118ZM60.5924 85.5529H57.5698C57.3037 85.5527 57.0481 85.6565 56.8581 85.8421C56.7649 85.9333 56.6909 86.0421 56.6404 86.1621C56.5899 86.2822 56.5639 86.411 56.5639 86.5412C56.5639 86.6713 56.5899 86.8002 56.6404 86.9202C56.6909 87.0402 56.7649 87.149 56.8581 87.2403C57.0481 87.4259 57.3037 87.5297 57.5698 87.5294H60.5924C60.8589 87.53 61.1149 87.4261 61.3053 87.2403C61.3984 87.149 61.4724 87.0402 61.5229 86.9202C61.5734 86.8002 61.5994 86.6713 61.5994 86.5412C61.5994 86.411 61.5734 86.2822 61.5229 86.1621C61.4724 86.0421 61.3984 85.9333 61.3053 85.8421C61.1149 85.6562 60.8589 85.5524 60.5924 85.5529ZM62.6075 80.6118C62.6074 80.4816 62.5813 80.3527 62.5307 80.2327C62.4801 80.1126 62.406 80.0038 62.3128 79.9126C62.1228 79.726 61.8667 79.6214 61.5999 79.6214C61.3331 79.6214 61.077 79.726 60.8871 79.9126C60.7938 80.0038 60.7197 80.1126 60.6691 80.2327C60.6186 80.3527 60.5925 80.4816 60.5924 80.6118V81.6994C60.5924 82.1794 60.2105 82.5882 59.5849 82.5882H53.5419C52.9163 82.5882 52.5344 82.1794 52.5344 81.6994V80.6118C52.5343 80.4816 52.5082 80.3527 52.4576 80.2327C52.407 80.1126 52.333 80.0038 52.2397 79.9126C52.0498 79.7263 51.7939 79.6219 51.5274 79.6219C51.2609 79.6219 51.0051 79.7263 50.8151 79.9126C50.7219 80.0038 50.6478 80.1126 50.5972 80.2327C50.5466 80.3527 50.5205 80.4816 50.5205 80.6118V83.5765C50.5205 84.1005 50.3074 84.6042 49.93 84.9735C49.5495 85.3457 49.0374 85.5538 48.5043 85.5529C47.9705 85.5529 47.4582 85.3451 47.0797 84.9735C46.8933 84.7913 46.7452 84.5739 46.6441 84.334C46.5429 84.0942 46.4906 83.8366 46.4903 83.5765V80.6118C46.4902 80.4816 46.4642 80.3527 46.4136 80.2327C46.363 80.1126 46.2889 80.0038 46.1957 79.9126C46.0057 79.726 45.7496 79.6214 45.4828 79.6214C45.216 79.6214 44.9599 79.726 44.7699 79.9126C44.6767 80.0038 44.6026 80.1126 44.552 80.2327C44.5014 80.3527 44.4753 80.4816 44.4753 80.6118V83.5765C44.4753 84.5557 44.8459 85.4987 45.5145 86.2261C46.19 86.9536 47.1091 87.41 48.0987 87.5092C49.0884 87.6084 50.0803 87.3437 50.8877 86.7648C51.6894 86.1906 52.2472 85.3387 52.4517 84.3761C52.8007 84.5003 53.1702 84.5647 53.5419 84.5647H59.586C61.1863 84.5647 62.6086 83.4014 62.6086 81.6994L62.6075 80.6118Z" fill="#005AC2"/>
</g>
<defs>
<linearGradient id="paint0_linear_107_3569" x1="45.2971" y1="15.0177" x2="35.5778" y2="40.1148" gradientUnits="userSpaceOnUse">
<stop stop-color="#005AC2"/>
<stop offset="1" stop-color="#4F90DC"/>
</linearGradient>
</defs>
</svg>
